<svg width="38" height="38" viewBox="0 0 38 38" fill="none" xmlns="http://www.w3.org/2000/svg">
<path d="M14.0303 10.0157C14.4238 10.0157 14.7769 10.2607 14.9232 10.6413L17.1027 16.5165C17.8695 18.5862 19.4688 20.2023 21.4919 20.9634L27.4501 23.1946C27.4955 23.2103 27.5258 23.2467 27.5661 23.2676C27.6014 23.2885 27.6317 23.3041 27.662 23.3302C27.7074 23.3666 27.7477 23.4031 27.7881 23.4448C27.8486 23.5126 27.8991 23.5908 27.9344 23.6742C27.9546 23.7264 27.9748 23.7785 27.9798 23.8358C27.995 23.888 28 23.9401 28 23.9974L27.9798 24.1695C27.9748 24.2216 27.9546 24.2737 27.9344 24.3311C27.8991 24.4197 27.8436 24.4979 27.7831 24.5657C27.7477 24.6074 27.7074 24.6439 27.662 24.6804C27.6368 24.7012 27.6065 24.7169 27.5813 24.7325C27.5359 24.7586 27.5005 24.8003 27.4501 24.8159L21.4919 27.0472C19.4739 27.8031 17.8695 29.4192 17.1027 31.4888L14.9232 37.364C14.782 37.7446 14.4288 38.0001 14.0303 38.0001C13.6166 38.0001 13.2483 37.7185 13.1272 37.3119L11.4876 31.9371C10.7762 29.612 9.03568 27.777 6.80072 26.9898L0.549912 24.8003C0.479281 24.7742 0.413697 24.7377 0.358202 24.7012C0.317841 24.6752 0.282525 24.6491 0.24721 24.6074C0.161444 24.5292 0.100901 24.4249 0.0554958 24.305C0.0403607 24.2737 0.0302718 24.232 0.0252268 24.1903C0.00504658 24.1278 0 24.0652 0 23.9974C0 23.9297 0.00504658 23.8619 0.0252268 23.8046C0.0302718 23.7629 0.0454057 23.7264 0.0554958 23.6899C0.0958562 23.5856 0.1564 23.4918 0.232075 23.4084C0.262346 23.3771 0.297658 23.3458 0.327929 23.3197C0.398559 23.2676 0.469192 23.2207 0.554958 23.1946L6.80576 21.0051C9.04072 20.2231 10.7813 18.3828 11.4926 16.063L13.1323 10.6882C13.2533 10.2764 13.6216 10.0001 14.0353 10.0001L14.0303 10.0157Z" fill="url(#paint0_linear_894_335)"/>
<path d="M37.9995 15.0183C37.9995 15.2164 37.8757 15.3916 37.6853 15.4653L34.7482 16.5574C33.7153 16.9399 32.906 17.7418 32.5252 18.751L31.4065 21.728C31.4065 21.728 31.3827 21.7648 31.3684 21.7879C31.3589 21.8063 31.3494 21.8201 31.3399 21.8339C31.3208 21.857 31.3018 21.8754 31.2827 21.8939C31.2494 21.9215 31.2113 21.9492 31.1685 21.9676C31.1399 21.9768 31.1161 21.986 31.0876 21.9906C31.059 21.9952 31.0352 21.9999 31.0067 21.9999L30.921 21.9906C30.8924 21.9906 30.8686 21.9768 30.84 21.9676C30.7972 21.9492 30.7591 21.9215 30.721 21.8939C30.6972 21.8754 30.683 21.857 30.6639 21.8339C30.6544 21.8201 30.6449 21.8063 30.6354 21.7925C30.6211 21.7694 30.602 21.751 30.5925 21.728L29.4738 18.751C29.0978 17.7418 28.2885 16.9399 27.2556 16.5574L24.3184 15.4653C24.128 15.3962 23.9995 15.2164 23.9995 15.0183C23.9995 14.8109 24.1376 14.6266 24.3423 14.5667L27.0271 13.7464C28.1886 13.3916 29.1073 12.5206 29.5024 11.4054L30.5973 8.27634C30.6115 8.23948 30.6258 8.20722 30.6449 8.17957C30.6592 8.16114 30.6734 8.1427 30.6925 8.12427C30.7306 8.0828 30.7829 8.05054 30.8448 8.0275C30.8638 8.02289 30.8829 8.01368 30.9019 8.01368C30.9305 8.00446 30.9638 7.99985 30.9971 7.99985C31.0305 7.99985 31.0638 7.99985 31.0923 8.01368C31.1114 8.01368 31.1304 8.02289 31.1495 8.0275C31.2018 8.04593 31.2494 8.07819 31.2875 8.11506C31.3066 8.12888 31.3161 8.14732 31.3304 8.16575C31.3589 8.20262 31.378 8.23487 31.3922 8.28096L32.4871 11.41C32.8774 12.5252 33.7962 13.3962 34.9577 13.751L37.6425 14.5713C37.8472 14.6312 37.9852 14.8155 37.9852 15.0229L37.9995 15.0183Z" fill="url(#paint1_linear_894_335)"/>
<path d="M25.9897 5.01497C25.9897 5.15469 25.9019 5.27944 25.7676 5.33433L23.6705 6.11278C22.9318 6.38723 22.3533 6.95609 22.0795 7.67964L21.2841 9.80539C21.2841 9.80539 21.2634 9.83034 21.2583 9.84531C21.2531 9.85529 21.2428 9.87026 21.2376 9.88024C21.2273 9.89521 21.2118 9.91018 21.1963 9.92515C21.1705 9.94511 21.1446 9.96507 21.1136 9.98004C21.093 9.98503 21.0775 9.99501 21.0568 9.99501C21.0362 9.99501 21.0207 10 21 10H20.938C20.938 10 20.9019 9.98503 20.8812 9.97505C20.8502 9.96008 20.8244 9.94511 20.7986 9.92016C20.7831 9.90519 20.7727 9.89521 20.7572 9.87525C20.7521 9.86527 20.7417 9.85529 20.7366 9.84531C20.7262 9.83034 20.7107 9.81537 20.7056 9.8004L19.9101 7.67465C19.6415 6.95608 19.063 6.38223 18.3244 6.10778L16.2273 5.32934C16.093 5.27944 16 5.1497 16 5.00998C16 4.86028 16.0981 4.73054 16.2479 4.68563L18.1694 4.10179C19.001 3.8473 19.657 3.22854 19.936 2.43014L20.7159 0.199598C20.7262 0.174648 20.7366 0.149698 20.7521 0.129738C20.7624 0.114768 20.7727 0.0997968 20.7831 0.0898167C20.8141 0.0598766 20.845 0.0349268 20.8915 0.0199567C20.9019 0.0199567 20.9174 0.00997456 20.9329 0.00997456C20.9535 0.00498454 20.9793 0 21 0C21.0207 0 21.0465 -5.48198e-06 21.0671 0.00997456C21.0826 0.00997456 21.0981 0.0149667 21.1085 0.0199567C21.1446 0.0349268 21.1808 0.0548845 21.2066 0.0798346C21.2169 0.0898146 21.2273 0.104788 21.2376 0.114768C21.2583 0.139718 21.2738 0.16467 21.2841 0.194611L22.0641 2.42514C22.343 3.22355 22.999 3.84231 23.8306 4.0968L25.7521 4.68064C25.9019 4.72555 26 4.85529 26 5.00499L25.9897 5.01497Z" fill="url(#paint2_linear_894_335)"/>
<defs>
<linearGradient id="paint0_linear_894_335" x1="10.5" y1="10.8751" x2="12.25" y2="39.7501" gradientUnits="userSpaceOnUse">
<stop offset="0.3125" stop-color="#EB19FF"/>
<stop offset="1" stop-color="#711FFF"/>
</linearGradient>
<linearGradient id="paint1_linear_894_335" x1="29.2495" y1="8.43735" x2="30.1245" y2="22.8749" gradientUnits="userSpaceOnUse">
<stop offset="0.3125" stop-color="#EB19FF"/>
<stop offset="1" stop-color="#711FFF"/>
</linearGradient>
<linearGradient id="paint2_linear_894_335" x1="19.75" y1="0.3125" x2="20.375" y2="10.625" gradientUnits="userSpaceOnUse">
<stop offset="0.3125" stop-color="#EB19FF"/>
<stop offset="1" stop-color="#711FFF"/>
</linearGradient>
</defs>
</svg>
