<svg width="40" height="41" viewBox="0 0 40 41" fill="none" xmlns="http://www.w3.org/2000/svg">
<mask id="mask0_94_2026" style="mask-type:alpha" maskUnits="userSpaceOnUse" x="0" y="0" width="40" height="41">
<rect y="0.473633" width="40" height="40" fill="#D9D9D9"/>
</mask>
<g mask="url(#mask0_94_2026)">
<path d="M8.33325 35.4736V14.5761C8.33325 13.8306 8.59547 13.1954 9.11992 12.6707C9.64464 12.1463 10.2799 11.884 11.0258 11.884H22.7883C23.5341 11.884 24.1692 12.1463 24.6937 12.6707C25.2184 13.1954 25.4808 13.8306 25.4808 14.5761V35.4736L16.9228 31.0507L8.33325 35.4736ZM9.99992 32.8036L16.9228 29.1882L23.8141 32.8036V14.5761C23.8141 14.277 23.718 14.0313 23.5258 13.8391C23.3333 13.6468 23.0874 13.5507 22.7883 13.5507H11.0258C10.7266 13.5507 10.4808 13.6468 10.2883 13.8391C10.096 14.0313 9.99992 14.277 9.99992 14.5761V32.8036ZM29.9999 29.5441V8.16613C29.9999 7.86697 29.9038 7.62113 29.7116 7.42863C29.5191 7.23641 29.2733 7.1403 28.9741 7.1403H12.9808V5.47363H28.9741C29.7199 5.47363 30.3552 5.73586 30.8799 6.2603C31.4044 6.78502 31.6666 7.4203 31.6666 8.16613V29.5441H29.9999Z" fill="white"/>
</g>
</svg>
