<svg width="25" height="25" viewBox="0 0 25 25" fill="none" xmlns="http://www.w3.org/2000/svg">
<mask id="mask0_730_301" style="mask-type:alpha" maskUnits="userSpaceOnUse" x="0" y="0" width="25" height="25">
<rect x="0.631836" y="0.406494" width="24" height="24" fill="#D9D9D9"/>
</mask>
<g mask="url(#mask0_730_301)">
<path d="M12.1318 17.7257V7.91424C11.41 7.39874 10.6145 7.01216 9.74534 6.75449C8.876 6.49683 8.00484 6.36799 7.13184 6.36799C6.53184 6.36799 6.0065 6.40391 5.55584 6.47574C5.10517 6.54758 4.60484 6.68091 4.05484 6.87574C3.901 6.92708 3.79209 7.00083 3.72809 7.09699C3.66392 7.19299 3.63184 7.29874 3.63184 7.41424V16.4295C3.63184 16.609 3.69592 16.7404 3.82409 16.8237C3.95225 16.9071 4.09334 16.9167 4.24734 16.8527C4.61267 16.7296 5.03475 16.6308 5.51359 16.5565C5.99242 16.4822 6.53184 16.445 7.13184 16.445C8.00484 16.445 8.85384 16.5453 9.67884 16.746C10.5038 16.9467 11.3215 17.2732 12.1318 17.7257ZM12.6318 19.1757C11.819 18.6192 10.9459 18.1917 10.0126 17.893C9.07925 17.5943 8.119 17.445 7.13184 17.445C6.61134 17.445 6.10009 17.4886 5.59809 17.5757C5.09625 17.6629 4.6075 17.8027 4.13184 17.995C3.769 18.1398 3.42834 18.0962 3.10984 17.8642C2.79117 17.6322 2.63184 17.3117 2.63184 16.9027V7.23724C2.63184 6.98974 2.69692 6.76024 2.82709 6.54874C2.95725 6.33724 3.13959 6.18983 3.37409 6.10649C3.96125 5.84749 4.57217 5.65966 5.20684 5.54299C5.8415 5.42633 6.48317 5.36799 7.13184 5.36799C8.22417 5.36799 9.194 5.50649 10.0413 5.78349C10.8888 6.06033 11.7549 6.47116 12.6396 7.01599C12.7973 7.10333 12.9187 7.21999 13.0038 7.36599C13.0892 7.51216 13.1318 7.68083 13.1318 7.87199V17.7257C13.9422 17.2732 14.7598 16.9467 15.5848 16.746C16.4098 16.5453 17.2588 16.445 18.1318 16.445C18.7318 16.445 19.2713 16.4822 19.7501 16.5565C20.2289 16.6308 20.651 16.7296 21.0163 16.8527C21.1703 16.9167 21.3114 16.9071 21.4396 16.8237C21.5678 16.7404 21.6318 16.609 21.6318 16.4295V6.00074C21.6895 6.01991 21.7463 6.04108 21.8021 6.06424C21.8578 6.08724 21.9125 6.11416 21.9663 6.14499C22.1882 6.24116 22.3546 6.38858 22.4656 6.58724C22.5764 6.78591 22.6318 7.00258 22.6318 7.23724V16.9027C22.6318 17.3117 22.4598 17.6258 22.1156 17.845C21.7713 18.0642 21.4048 18.1013 21.0163 17.9565C20.5537 17.777 20.0809 17.6468 19.5981 17.566C19.1154 17.4853 18.6267 17.445 18.1318 17.445C17.1447 17.445 16.1844 17.5943 15.2511 17.893C14.3178 18.1917 13.4447 18.6192 12.6318 19.1757ZM15.8241 14.4065V4.40649L18.9396 3.40649V13.4065L15.8241 14.4065Z" fill="#1C1B1F"/>
</g>
</svg>
