<svg width="20" height="20" viewBox="0 0 20 20" fill="none" xmlns="http://www.w3.org/2000/svg">
<path d="M7.55775 15.75C7.05258 15.75 6.625 15.575 6.275 15.225C5.925 14.875 5.75 14.4474 5.75 13.9423V2.55775C5.75 2.05258 5.925 1.625 6.275 1.275C6.625 0.925 7.05258 0.75 7.55775 0.75H15.9423C16.4474 0.75 16.875 0.925 17.225 1.275C17.575 1.625 17.75 2.05258 17.75 2.55775V13.9423C17.75 14.4474 17.575 14.875 17.225 15.225C16.875 15.575 16.4474 15.75 15.9423 15.75H7.55775ZM7.55775 14.25H15.9423C16.0192 14.25 16.0898 14.2179 16.1538 14.1538C16.2179 14.0898 16.25 14.0192 16.25 13.9423V2.55775C16.25 2.48075 16.2179 2.41025 16.1538 2.34625C16.0898 2.28208 16.0192 2.25 15.9423 2.25H7.55775C7.48075 2.25 7.41025 2.28208 7.34625 2.34625C7.28208 2.41025 7.25 2.48075 7.25 2.55775V13.9423C7.25 14.0192 7.28208 14.0898 7.34625 14.1538C7.41025 14.2179 7.48075 14.25 7.55775 14.25ZM4.05775 19.25C3.55258 19.25 3.125 19.075 2.775 18.725C2.425 18.375 2.25 17.9474 2.25 17.4423V4.55775H3.75V17.4423C3.75 17.5193 3.78208 17.5898 3.84625 17.6538C3.91025 17.7179 3.98075 17.75 4.05775 17.75H13.9423V19.25H4.05775Z" fill="black"/>
</svg>
