<svg width="81" height="81" viewBox="0 0 81 81" fill="none" xmlns="http://www.w3.org/2000/svg">
<mask id="mask0_184_1713" style="mask-type:alpha" maskUnits="userSpaceOnUse" x="0" y="0" width="81" height="81">
<rect x="0.5" y="0.84082" width="80" height="80" fill="url(#paint0_linear_184_1713)"/>
</mask>
<g mask="url(#mask0_184_1713)">
<path d="M21.269 74.1745H12.5515C11.0171 74.1745 9.73595 73.6606 8.70817 72.6328C7.68039 71.605 7.1665 70.3239 7.1665 68.7895V60.072H10.4998V68.7895C10.4998 69.3878 10.6921 69.8795 11.0765 70.2645C11.4615 70.6489 11.9532 70.8411 12.5515 70.8411H21.269V74.1745ZM59.7307 74.1745V70.8411H68.4482C69.0465 70.8411 69.5382 70.6489 69.9232 70.2645C70.3076 69.8795 70.4998 69.3878 70.4998 68.7895V60.072H73.8332V68.7895C73.8332 70.3239 73.3193 71.605 72.2915 72.6328C71.2637 73.6606 69.9826 74.1745 68.4482 74.1745H59.7307ZM40.4998 59.9436C34.5598 59.9436 29.2232 58.26 24.4898 54.8928C19.7571 51.525 16.1834 46.8411 13.769 40.8411C16.1834 34.8411 19.7571 30.1573 24.4898 26.7895C29.2232 23.4223 34.5598 21.7386 40.4998 21.7386C46.4398 21.7386 51.7765 23.4223 56.5098 26.7895C61.2426 30.1573 64.8162 34.8411 67.2307 40.8411C64.8162 46.8411 61.2426 51.525 56.5098 54.8928C51.7765 58.26 46.4398 59.9436 40.4998 59.9436ZM40.4998 56.6103C45.5598 56.6103 50.0962 55.2342 54.109 52.482C58.1218 49.7298 61.2757 45.8495 63.5707 40.8411C61.2757 35.8328 58.1218 31.9525 54.109 29.2003C50.0962 26.4481 45.5598 25.072 40.4998 25.072C35.4398 25.072 30.9035 26.4481 26.8907 29.2003C22.8779 31.9525 19.724 35.8328 17.429 40.8411C19.724 45.8495 22.8779 49.7298 26.8907 52.482C30.9035 55.2342 35.4398 56.6103 40.4998 56.6103ZM40.4998 50.3928C43.1665 50.3928 45.4251 49.4675 47.2757 47.617C49.1262 45.7664 50.0515 43.5078 50.0515 40.8411C50.0515 38.1745 49.1262 35.9159 47.2757 34.0653C45.4251 32.2148 43.1665 31.2895 40.4998 31.2895C37.8332 31.2895 35.5746 32.2148 33.724 34.0653C31.8735 35.9159 30.9482 38.1745 30.9482 40.8411C30.9482 43.5078 31.8735 45.7664 33.724 47.617C35.5746 49.4675 37.8332 50.3928 40.4998 50.3928ZM40.4998 47.0595C38.7693 47.0595 37.3004 46.4556 36.0932 45.2478C34.8854 44.0406 34.2815 42.5717 34.2815 40.8411C34.2815 39.1106 34.8854 37.6417 36.0932 36.4345C37.3004 35.2267 38.7693 34.6228 40.4998 34.6228C42.2304 34.6228 43.6993 35.2267 44.9065 36.4345C46.1143 37.6417 46.7182 39.1106 46.7182 40.8411C46.7182 42.5717 46.1143 44.0406 44.9065 45.2478C43.6993 46.4556 42.2304 47.0595 40.4998 47.0595ZM7.1665 21.6103V12.8928C7.1665 11.3584 7.68039 10.0773 8.70817 9.04948C9.73595 8.0217 11.0171 7.50781 12.5515 7.50781H21.269V10.8411H12.5515C11.9532 10.8411 11.4615 11.0334 11.0765 11.4178C10.6921 11.8028 10.4998 12.2945 10.4998 12.8928V21.6103H7.1665ZM70.4998 21.6103V12.8928C70.4998 12.2945 70.3076 11.8028 69.9232 11.4178C69.5382 11.0334 69.0465 10.8411 68.4482 10.8411H59.7307V7.50781H68.4482C69.9826 7.50781 71.2637 8.0217 72.2915 9.04948C73.3193 10.0773 73.8332 11.3584 73.8332 12.8928V21.6103H70.4998Z" fill="url(#paint1_linear_184_1713)"/>
</g>
<defs>
<linearGradient id="paint0_linear_184_1713" x1="91.8333" y1="99.5075" x2="0.5" y2="-10.4925" gradientUnits="userSpaceOnUse">
<stop stop-color="#206B00"/>
<stop offset="1" stop-color="#57FF1A"/>
</linearGradient>
<linearGradient id="paint1_linear_184_1713" x1="83.2776" y1="89.73" x2="7.1665" y2="-1.93663" gradientUnits="userSpaceOnUse">
<stop stop-color="#206B00"/>
<stop offset="1" stop-color="#57FF1A"/>
</linearGradient>
</defs>
</svg>
