<svg width="28" height="29" viewBox="0 0 28 29" fill="none" xmlns="http://www.w3.org/2000/svg">
<path d="M5.73046 0.641602H22.2695C25.4213 0.641602 28 3.22028 28 6.37191V22.9106C28 26.0622 25.4213 28.6416 22.2695 28.6416H5.73046C2.57874 28.6416 0 26.0629 0 22.9106V6.37191C0 3.22028 2.57874 0.641602 5.73046 0.641602Z" fill="#294DA5"/>
<path d="M14 28.6416C21.732 28.6416 28 22.3736 28 14.6416C28 6.90961 21.732 0.641602 14 0.641602C6.26801 0.641602 0 6.90961 0 14.6416C0 22.3736 6.26801 28.6416 14 28.6416Z" fill="#294DA5"/>
<path d="M16.0563 16.0854H13.4313V23.2166H9.58127V16.0854H7.74377V12.8041H9.58127V10.6604C9.58127 9.1291 10.325 6.7666 13.475 6.7666H16.3625V9.96035H14.2625C13.9125 9.96035 13.4313 10.1354 13.4313 10.8354V12.7604H16.3625L16.0563 16.0854Z" fill="white"/>
</svg>
