<svg width="30" height="31" viewBox="0 0 30 31" fill="none" xmlns="http://www.w3.org/2000/svg">
<path d="M13.5001 6.99921C14.9714 10.7425 17.9548 13.7256 21.6981 15.1968C17.9547 16.6682 14.9714 19.6517 13.5001 23.3952C12.0287 19.6517 9.04538 16.6682 5.30198 15.1968C9.04536 13.7256 12.0287 10.7425 13.5001 6.99921Z" stroke="white" stroke-width="2"/>
<path d="M24.0001 22.1074C24.5902 23.0867 25.4133 23.9098 26.3926 24.4998C25.4133 25.0899 24.5902 25.9131 24.0001 26.8924C23.41 25.9131 22.5869 25.0899 21.6076 24.4998C22.5869 23.9098 23.41 23.0867 24.0001 22.1074Z" stroke="white" stroke-width="2"/>
<path d="M22.5001 3.66292C22.8654 4.18172 23.3182 4.6345 23.8371 4.99983C23.3182 5.36521 22.8654 5.81803 22.5001 6.33688C22.1347 5.81803 21.6819 5.36521 21.1631 4.99983C21.6819 4.6345 22.1347 4.18172 22.5001 3.66292Z" stroke="white" stroke-width="2"/>
</svg>
