<svg width="81" height="81" viewBox="0 0 81 81" fill="none" xmlns="http://www.w3.org/2000/svg">
<mask id="mask0_184_1686" style="mask-type:alpha" maskUnits="userSpaceOnUse" x="0" y="0" width="81" height="81">
<rect x="0.5" y="0.84082" width="80" height="80" fill="url(#paint0_linear_184_1686)"/>
</mask>
<g mask="url(#mask0_184_1686)">
<path d="M43.8334 45.8408H47.1667V35.8408H57.1668V32.5075H47.1667V22.5075H43.8334V32.5075H33.8334V35.8408H43.8334V45.8408ZM27.5517 57.5075C26.0173 57.5075 24.7362 56.9936 23.7084 55.9658C22.6806 54.938 22.1667 53.6569 22.1667 52.1225V16.2258C22.1667 14.6914 22.6806 13.4103 23.7084 12.3825C24.7362 11.3547 26.0173 10.8408 27.5517 10.8408H63.4484C64.9829 10.8408 66.264 11.3547 67.2918 12.3825C68.3195 13.4103 68.8334 14.6914 68.8334 16.2258V52.1225C68.8334 53.6569 68.3195 54.938 67.2918 55.9658C66.264 56.9936 64.9829 57.5075 63.4484 57.5075H27.5517ZM27.5517 54.1742H63.4484C63.9618 54.1742 64.432 53.9605 64.8592 53.5333C65.2865 53.1061 65.5001 52.6358 65.5001 52.1225V16.2258C65.5001 15.7125 65.2865 15.2422 64.8592 14.815C64.432 14.3878 63.9618 14.1742 63.4484 14.1742H27.5517C27.0384 14.1742 26.5681 14.3878 26.1409 14.815C25.7137 15.2422 25.5001 15.7125 25.5001 16.2258V52.1225C25.5001 52.6358 25.7137 53.1061 26.1409 53.5333C26.5681 53.9605 27.0384 54.1742 27.5517 54.1742ZM17.5517 67.5075C16.0173 67.5075 14.7362 66.9936 13.7084 65.9658C12.6806 64.938 12.1667 63.6572 12.1667 62.1233V22.8925H15.5001V62.1233C15.5001 62.6361 15.7137 63.1061 16.1409 63.5333C16.5681 63.9605 17.0384 64.1742 17.5517 64.1742H56.7818V67.5075H17.5517Z" fill="url(#paint1_linear_184_1686)"/>
</g>
<defs>
<linearGradient id="paint0_linear_184_1686" x1="91.8333" y1="99.5075" x2="0.5" y2="-10.4925" gradientUnits="userSpaceOnUse">
<stop offset="0.285" stop-color="#00F59F"/>
<stop offset="1" stop-color="#0F00E8"/>
</linearGradient>
<linearGradient id="paint1_linear_184_1686" x1="76.8612" y1="80.7297" x2="12.1667" y2="2.81304" gradientUnits="userSpaceOnUse">
<stop offset="0.285" stop-color="#00F59F"/>
<stop offset="1" stop-color="#0F00E8"/>
</linearGradient>
</defs>
</svg>
