<svg width="28" height="29" viewBox="0 0 28 29" fill="none" xmlns="http://www.w3.org/2000/svg">
<path d="M5.73104 0.641602H22.2697C25.4213 0.641602 28 3.22028 28 6.37191V22.9106C28 26.0622 25.4213 28.6416 22.2697 28.6416H5.73104C2.57941 28.6416 0.000732422 26.0629 0.000732422 22.9106V6.37191C0.000732422 3.22028 2.57941 0.641602 5.73104 0.641602Z" fill="#3ACE01"/>
<path d="M5.73104 0.641602H22.2697C25.4213 0.641602 28 3.22028 28 6.37191V22.9106C28 26.0622 25.4213 28.6416 22.2697 28.6416H5.73104C2.57941 28.6416 0.000732422 26.0629 0.000732422 22.9106V6.37191C0.000732422 3.22028 2.57941 0.641602 5.73104 0.641602Z" fill="#3ACE01"/>
<path d="M13.9733 5.2793C19.6465 5.2793 24.2458 8.96238 24.2458 13.5053C24.2458 15.0922 23.6839 16.5739 22.7122 17.8302C22.664 17.9021 22.601 17.9807 22.5217 18.0682L22.5158 18.0748C22.1837 18.4721 21.8101 18.8449 21.3988 19.1896C18.5577 21.8157 13.8821 24.9414 13.2647 24.4589C12.7281 24.0394 14.1482 21.9892 12.5102 21.6482C12.396 21.6349 12.2819 21.6208 12.1692 21.6052H12.167C7.35504 20.9211 3.70087 17.5552 3.70087 13.506C3.70087 8.96312 8.30008 5.28004 13.9733 5.28004V5.2793Z" fill="white"/>
<path d="M8.01325 16.1292H10.0849C10.3799 16.1292 10.6208 15.8883 10.6208 15.5933V15.5488C10.6208 15.2538 10.3799 15.0129 10.0849 15.0129H8.59362V11.6196C8.59362 11.3246 8.35273 11.0837 8.05772 11.0837H8.01325C7.71825 11.0837 7.47736 11.3246 7.47736 11.6196V15.5933C7.47736 15.8883 7.71825 16.1292 8.01325 16.1292ZM20.8518 13.6387V13.5942C20.8518 13.2992 20.6109 13.0583 20.3159 13.0583H18.8246V12.2104H20.3159C20.6109 12.2104 20.8518 11.9695 20.8518 11.6745V11.63C20.8518 11.335 20.6109 11.0941 20.3159 11.0941H18.2442C17.9492 11.0941 17.7083 11.335 17.7083 11.63V15.6036C17.7083 15.8986 17.9492 16.1395 18.2442 16.1395H20.3159C20.6109 16.1395 20.8518 15.8986 20.8518 15.6036V15.5592C20.8518 15.2642 20.6109 15.0233 20.3159 15.0233H18.8246V14.1753H20.3159C20.6109 14.1753 20.8518 13.9344 20.8518 13.6394V13.6387ZM16.867 15.9698C16.9626 15.8727 17.0219 15.74 17.0219 15.594V11.6204C17.0219 11.3254 16.781 11.0845 16.486 11.0845H16.4416C16.1466 11.0845 15.9057 11.3254 15.9057 11.6204V13.953L13.9689 11.3558C13.8762 11.1942 13.702 11.0845 13.5034 11.0845H13.4589C13.1639 11.0845 12.923 11.3254 12.923 11.6204V15.594C12.923 15.889 13.1639 16.1299 13.4589 16.1299H13.5034C13.7984 16.1299 14.0393 15.889 14.0393 15.594V13.2177L15.9894 15.8816C16.0013 15.9001 16.0146 15.9179 16.0287 15.935C16.0821 16.0083 16.1555 16.058 16.237 16.0891C16.3 16.1151 16.3682 16.1292 16.4401 16.1292H16.4846C16.575 16.1292 16.6602 16.1062 16.7351 16.0669C16.7885 16.0417 16.8337 16.0083 16.8655 15.9698H16.867ZM11.5889 16.1292H11.6333C11.9283 16.1292 12.1692 15.8883 12.1692 15.5933V11.6196C12.1692 11.3246 11.9283 11.0837 11.6333 11.0837H11.5889C11.2939 11.0837 11.053 11.3246 11.053 11.6196V15.5933C11.053 15.8883 11.2939 16.1292 11.5889 16.1292Z" fill="#3ACE01"/>
</svg>
