<svg width="28" height="29" viewBox="0 0 28 29" fill="none" xmlns="http://www.w3.org/2000/svg">
<path d="M5.7303 0.641602H22.269C25.4206 0.641602 27.9993 3.22028 27.9993 6.37191V22.9106C27.9993 26.0622 25.4206 28.6416 22.269 28.6416H5.7303C2.57867 28.6416 0 26.0629 0 22.9106V6.37191C0 3.22028 2.57867 0.641602 5.7303 0.641602Z" fill="#FF5723"/>
<mask id="mask0_297_1674" style="mask-type:alpha" maskUnits="userSpaceOnUse" x="3" y="4" width="22" height="22">
<rect x="3.5" y="4.1416" width="21" height="21" fill="#D9D9D9"/>
</mask>
<g mask="url(#mask0_297_1674)">
<path d="M18.375 23.3916C17.6458 23.3916 17.026 23.1364 16.5156 22.626C16.0052 22.1156 15.75 21.4958 15.75 20.7666C15.75 20.6791 15.7719 20.4749 15.8156 20.1541L9.66875 16.5666C9.43542 16.7854 9.16563 16.9567 8.85938 17.0807C8.55312 17.2046 8.225 17.2666 7.875 17.2666C7.14583 17.2666 6.52604 17.0114 6.01562 16.501C5.50521 15.9906 5.25 15.3708 5.25 14.6416C5.25 13.9124 5.50521 13.2926 6.01562 12.7822C6.52604 12.2718 7.14583 12.0166 7.875 12.0166C8.225 12.0166 8.55312 12.0786 8.85938 12.2025C9.16563 12.3265 9.43542 12.4979 9.66875 12.7166L15.8156 9.1291C15.7865 9.02702 15.7682 8.92858 15.7609 8.83379C15.7536 8.739 15.75 8.63327 15.75 8.5166C15.75 7.78743 16.0052 7.16764 16.5156 6.65723C17.026 6.14681 17.6458 5.8916 18.375 5.8916C19.1042 5.8916 19.724 6.14681 20.2344 6.65723C20.7448 7.16764 21 7.78743 21 8.5166C21 9.24577 20.7448 9.86556 20.2344 10.376C19.724 10.8864 19.1042 11.1416 18.375 11.1416C18.025 11.1416 17.6969 11.0796 17.3906 10.9557C17.0844 10.8317 16.8146 10.6604 16.5813 10.4416L10.4344 14.0291C10.4635 14.1312 10.4818 14.2296 10.4891 14.3244C10.4964 14.4192 10.5 14.5249 10.5 14.6416C10.5 14.7583 10.4964 14.864 10.4891 14.9588C10.4818 15.0536 10.4635 15.152 10.4344 15.2541L16.5813 18.8416C16.8146 18.6229 17.0844 18.4515 17.3906 18.3275C17.6969 18.2036 18.025 18.1416 18.375 18.1416C19.1042 18.1416 19.724 18.3968 20.2344 18.9072C20.7448 19.4176 21 20.0374 21 20.7666C21 21.4958 20.7448 22.1156 20.2344 22.626C19.724 23.1364 19.1042 23.3916 18.375 23.3916ZM18.375 21.6416C18.6229 21.6416 18.8307 21.5577 18.9984 21.39C19.1661 21.2223 19.25 21.0145 19.25 20.7666C19.25 20.5187 19.1661 20.3109 18.9984 20.1432C18.8307 19.9755 18.6229 19.8916 18.375 19.8916C18.1271 19.8916 17.9193 19.9755 17.7516 20.1432C17.5839 20.3109 17.5 20.5187 17.5 20.7666C17.5 21.0145 17.5839 21.2223 17.7516 21.39C17.9193 21.5577 18.1271 21.6416 18.375 21.6416ZM7.875 15.5166C8.12292 15.5166 8.33073 15.4327 8.49844 15.265C8.66615 15.0973 8.75 14.8895 8.75 14.6416C8.75 14.3937 8.66615 14.1859 8.49844 14.0182C8.33073 13.8505 8.12292 13.7666 7.875 13.7666C7.62708 13.7666 7.41927 13.8505 7.25156 14.0182C7.08385 14.1859 7 14.3937 7 14.6416C7 14.8895 7.08385 15.0973 7.25156 15.265C7.41927 15.4327 7.62708 15.5166 7.875 15.5166ZM18.375 9.3916C18.6229 9.3916 18.8307 9.30775 18.9984 9.14004C19.1661 8.97233 19.25 8.76452 19.25 8.5166C19.25 8.26868 19.1661 8.06087 18.9984 7.89316C18.8307 7.72546 18.6229 7.6416 18.375 7.6416C18.1271 7.6416 17.9193 7.72546 17.7516 7.89316C17.5839 8.06087 17.5 8.26868 17.5 8.5166C17.5 8.76452 17.5839 8.97233 17.7516 9.14004C17.9193 9.30775 18.1271 9.3916 18.375 9.3916Z" fill="white"/>
</g>
</svg>
