<svg width="259" height="45" viewBox="0 0 259 45" fill="none" xmlns="http://www.w3.org/2000/svg">
<path d="M109.948 11.4064C111.406 13.073 112.136 15.4168 112.136 18.4376V34.896H102.552V19.5835C102.552 18.4897 102.292 17.6043 101.771 16.9793C101.25 16.3022 100.521 15.9897 99.5314 15.9897C98.3856 15.9897 97.5002 16.3543 96.771 17.1355C96.0418 17.9168 95.7293 18.8543 95.7293 19.948V34.8439H86.146V19.5835C86.146 18.4897 85.8856 17.6043 85.3648 16.9793C84.8439 16.3022 84.1148 15.9897 83.1252 15.9897C81.9793 15.9897 81.0939 16.3543 80.3648 17.1355C79.6356 17.9168 79.3231 18.8543 79.3231 19.948V34.8439H69.7397V9.47929H77.5522L78.1773 13.2814C79.1148 11.9272 80.4168 10.8855 81.9793 10.1043C83.5418 9.32304 85.2606 8.90637 86.9793 8.90637C90.7814 8.90637 93.3335 10.3647 94.6877 13.2814C95.6773 11.9272 96.9793 10.8855 98.4898 10.1043C100.052 9.32304 101.667 8.90637 103.386 8.90637C106.354 8.90637 108.49 9.73971 109.948 11.4064Z" fill="#354F52"/>
<path d="M118.177 34.8959V0.052124H127.761V34.8959H118.177Z" fill="#354F52"/>
<path d="M147.292 42.2396C145.365 44.0625 142.708 45 139.271 45C137.188 45 135.365 44.6875 133.75 44.1146V38.3854H137.604C140 38.3854 141.458 37.2396 141.875 34.8958L131.771 9.47913H142.083L146.927 26.3541H147.24L151.719 9.47913H161.146L152.084 34.1146C150.834 37.6562 149.219 40.3646 147.292 42.2396Z" fill="#354F52"/>
<path d="M180.99 9.47921V15.9896H175.625V25.6771C175.625 26.823 175.833 27.6563 176.198 28.1771C176.562 28.698 177.292 28.9584 178.333 28.9584H181.042V34.5834C180.26 34.8438 179.271 35.0521 178.073 35.2084C176.875 35.3646 175.781 35.4688 174.896 35.4688C172.083 35.4688 169.896 34.948 168.385 33.9063C166.875 32.8646 166.094 31.1459 166.094 28.6459V15.9896H162.552V9.47921H166.51L168.594 1.77087H175.729V9.47921H180.99Z" fill="#354F52"/>
<path d="M185.729 6.51046V0.052124H195.312V6.56254H185.729V6.51046ZM185.729 34.8959V9.47921H195.312V34.8438H185.729V34.8959Z" fill="#354F52"/>
<path d="M224.635 11.6147C227.24 13.3855 228.49 16.0939 228.49 19.7397H219.219C219.219 16.8751 217.656 15.4168 214.531 15.4168C211.406 15.4168 209.844 17.2397 209.844 20.8335V23.5939C209.844 27.1876 211.458 28.9585 214.74 28.9585C218.021 28.9585 219.635 27.5001 219.635 24.5314H228.542C228.542 28.2293 227.24 30.9376 224.688 32.7605C222.083 34.5314 218.75 35.4689 214.583 35.4689C210.104 35.4689 206.615 34.323 204.115 32.0835C201.562 29.8439 200.312 26.5626 200.312 22.1876C200.312 17.8126 201.562 14.5314 204.115 12.2918C206.667 10.0522 210.156 8.90637 214.583 8.90637C218.698 8.90637 222.083 9.79179 224.635 11.6147Z" fill="#354F52"/>
<path d="M254.167 10.9375C256.51 12.2917 257.708 14.3229 257.708 17.1354H248.802C248.802 16.1979 248.385 15.5729 247.552 15.1563C246.979 14.8438 246.25 14.6875 245.365 14.6875C243.073 14.6875 241.927 15.2084 241.927 16.3021C241.927 16.9271 242.344 17.3438 243.125 17.6042C243.906 17.8646 245.26 18.125 247.083 18.4375C249.323 18.75 251.198 19.1146 252.708 19.5834C254.219 20 255.521 20.7813 256.667 21.875C257.813 22.9688 258.333 24.5313 258.333 26.5104C258.333 29.7396 257.135 32.0313 254.688 33.4375C252.292 34.7917 249.115 35.5209 245.208 35.5209C242.969 35.5209 240.833 35.2084 238.854 34.5834C236.875 33.9584 235.26 32.9688 234.01 31.6667C232.76 30.3646 232.135 28.6979 232.135 26.6667H241.042V26.875C241.094 27.9688 241.51 28.75 242.396 29.1667C243.281 29.5834 244.219 29.7917 245.208 29.7917C247.865 29.7917 249.219 29.1667 249.219 27.9167C249.219 27.2917 248.802 26.8229 247.969 26.5104C247.135 26.1979 245.781 25.9375 243.906 25.5729C241.615 25.2084 239.74 24.7917 238.281 24.3229C236.823 23.8542 235.573 23.125 234.479 22.0313C233.385 20.9375 232.865 19.4792 232.865 17.5521C232.865 14.4271 234.063 12.2396 236.406 10.9375C238.75 9.63544 241.823 8.95836 245.625 8.95836C248.958 8.90628 251.823 9.58336 254.167 10.9375Z" fill="#354F52"/>
<path d="M53.4897 27.8126C53.4897 31.7188 50.3127 34.8959 46.4064 34.8959H37.9689C35.8335 34.8959 34.1147 33.1772 34.1147 31.0418C34.1147 28.9063 35.8335 27.1876 37.9689 27.1876H52.8127C53.1773 27.1355 53.4897 27.448 53.4897 27.8126Z" fill="#A3B18A"/>
<path d="M52.8127 13.9584H37.9689C35.8335 13.9584 34.1147 15.6771 34.1147 17.8125C34.1147 19.948 35.8335 21.6667 37.9689 21.6667H46.3543C50.2606 21.6667 53.4377 18.4896 53.4377 14.5834C53.4898 14.2709 53.1773 13.9584 52.8127 13.9584Z" fill="#588157"/>
<path d="M50.3646 0H30.9896C29.6875 0 28.5417 0.677084 27.8125 1.66667L17.4479 16.5104L7.03125 1.66667C6.35417 0.677084 5.20833 0 3.85417 0C1.71875 0 0 1.77083 0 3.90625V31.0417C0 33.1771 1.71875 34.8958 3.85417 34.8958C5.98958 34.8958 7.70834 33.1771 7.70834 31.0417V16.1979L14.1667 25.4167L14.2188 25.5208C14.8958 26.5104 16.0938 27.1875 17.3958 27.1875C18.6979 27.1875 19.8438 26.5104 20.5729 25.5208L20.625 25.4167L31.8229 9.42709C31.875 9.375 31.9271 9.32292 31.9271 9.27084C31.9271 9.27084 31.9271 9.21875 31.9792 9.21875C32.6563 8.38542 33.6458 7.8125 34.8438 7.8125H50.3646C52.5 7.8125 54.2188 6.09375 54.2188 3.95833C54.2708 1.77083 52.5 0 50.3646 0Z" fill="#354F52"/>
</svg>
