<svg width="138" height="25" viewBox="0 0 138 25" fill="none" xmlns="http://www.w3.org/2000/svg">
<path d="M58.564 7.01081C59.3408 7.8997 59.7292 9.1497 59.7292 10.7608V19.5386H54.6246V11.3719C54.6246 10.7886 54.4859 10.3164 54.2085 9.98304C53.9311 9.62193 53.5427 9.45526 53.0156 9.45526C52.4053 9.45526 51.9337 9.6497 51.5453 10.0664C51.1569 10.483 50.9904 10.983 50.9904 11.5664V19.5108H45.8859V11.3719C45.8859 10.7886 45.7472 10.3164 45.4698 9.98304C45.1924 9.62193 44.804 9.45526 44.2769 9.45526C43.6666 9.45526 43.195 9.6497 42.8066 10.0664C42.4182 10.483 42.2517 10.983 42.2517 11.5664V19.5108H37.1472V5.98303H41.3085L41.6414 8.01081C42.1408 7.28859 42.8343 6.73304 43.6666 6.31637C44.4988 5.8997 45.4143 5.67748 46.3298 5.67748C48.355 5.67748 49.7143 6.45526 50.4356 8.01081C50.9627 7.28859 51.6563 6.73304 52.4608 6.31637C53.293 5.8997 54.153 5.67748 55.0685 5.67748C56.6498 5.67748 57.7872 6.12192 58.564 7.01081Z" fill="white"/>
<path d="M62.9465 19.5385V0.955189H68.0511V19.5385H62.9465Z" fill="white"/>
<path d="M78.4544 23.4552C77.4279 24.4274 76.0131 24.9274 74.1821 24.9274C73.0724 24.9274 72.1014 24.7607 71.2414 24.4552V21.3996H73.2944C74.5705 21.3996 75.3473 20.7885 75.5692 19.5385L70.1873 5.98293H75.6802L78.2602 14.9829H78.4266L80.8124 5.98293H85.8337L81.0066 19.1218C80.3408 21.0107 79.4808 22.4552 78.4544 23.4552Z" fill="white"/>
<path d="M96.403 5.98304V9.45526H93.5456V14.6219C93.5456 15.233 93.6566 15.6775 93.8508 15.9553C94.045 16.233 94.4334 16.3719 94.9882 16.3719H96.4308V19.3719C96.0147 19.5108 95.4876 19.6219 94.8495 19.7053C94.2114 19.7886 93.6288 19.8442 93.1572 19.8442C91.6592 19.8442 90.494 19.5664 89.6895 19.0108C88.885 18.4553 88.4688 17.5386 88.4688 16.2053V9.45526H86.5824V5.98304H88.6908L89.8005 1.87193H93.6011V5.98304H96.403Z" fill="white"/>
<path d="M98.9276 4.39963V0.955189H104.032V4.42741H98.9276V4.39963ZM98.9276 19.5385V5.98297H104.032V19.5107H98.9276V19.5385Z" fill="white"/>
<path d="M119.651 7.12192C121.038 8.06637 121.704 9.51081 121.704 11.4553H116.766C116.766 9.92748 115.934 9.1497 114.269 9.1497C112.605 9.1497 111.772 10.1219 111.772 12.0386V13.5108C111.772 15.4275 112.632 16.3719 114.38 16.3719C116.128 16.3719 116.988 15.5941 116.988 14.0108H121.732C121.732 15.983 121.038 17.4275 119.679 18.3997C118.292 19.3441 116.516 19.8441 114.297 19.8441C111.911 19.8441 110.052 19.233 108.721 18.0386C107.361 16.8441 106.696 15.0941 106.696 12.7608C106.696 10.4275 107.361 8.67748 108.721 7.48303C110.08 6.28859 111.939 5.67748 114.297 5.67748C116.488 5.67748 118.292 6.1497 119.651 7.12192Z" fill="white"/>
<path d="M135.381 6.76074C136.629 7.48297 137.267 8.5663 137.267 10.0663H132.523C132.523 9.5663 132.301 9.23297 131.857 9.01075C131.552 8.84408 131.164 8.76075 130.692 8.76075C129.472 8.76075 128.861 9.03852 128.861 9.62186C128.861 9.95519 129.083 10.1774 129.499 10.3163C129.916 10.4552 130.637 10.5941 131.608 10.7607C132.801 10.9274 133.799 11.1219 134.604 11.3719C135.408 11.5941 136.102 12.0107 136.712 12.5941C137.323 13.1774 137.6 14.0107 137.6 15.0663C137.6 16.7885 136.962 18.0107 135.658 18.7607C134.382 19.483 132.69 19.8719 130.609 19.8719C129.416 19.8719 128.279 19.7052 127.225 19.3719C126.17 19.0385 125.31 18.5107 124.645 17.8163C123.979 17.1219 123.646 16.233 123.646 15.1496H128.39V15.2607C128.417 15.8441 128.639 16.2607 129.111 16.483C129.583 16.7052 130.082 16.8163 130.609 16.8163C132.024 16.8163 132.745 16.483 132.745 15.8163C132.745 15.483 132.523 15.233 132.079 15.0663C131.636 14.8996 130.914 14.7607 129.916 14.5663C128.695 14.3719 127.696 14.1496 126.919 13.8996C126.143 13.6496 125.477 13.2607 124.894 12.6774C124.312 12.0941 124.034 11.3163 124.034 10.2885C124.034 8.62186 124.672 7.45519 125.921 6.76074C127.169 6.0663 128.806 5.70519 130.831 5.70519C132.607 5.67741 134.132 6.03852 135.381 6.76074Z" fill="white"/>
<path d="M28.4911 15.7608C28.4911 17.8442 26.7989 19.5386 24.7182 19.5386H20.224C19.0866 19.5386 18.1711 18.6219 18.1711 17.483C18.1711 16.3442 19.0866 15.4275 20.224 15.4275H28.1305C28.3247 15.3997 28.4911 15.5664 28.4911 15.7608Z" fill="white"/>
<path d="M28.1305 8.37185H20.224C19.0866 8.37185 18.1711 9.28852 18.1711 10.4274C18.1711 11.5663 19.0866 12.483 20.224 12.483H24.6905C26.7711 12.483 28.4634 10.7885 28.4634 8.70519C28.4911 8.53852 28.3247 8.37185 28.1305 8.37185Z" fill="white"/>
<path d="M26.8265 0.927443H16.5065C15.8129 0.927443 15.2026 1.28855 14.8142 1.81633L9.29355 9.733L3.74516 1.81633C3.38452 1.28855 2.77419 0.927443 2.0529 0.927443C0.915484 0.927443 0 1.87189 0 3.01078V17.483C0 18.6219 0.915484 19.5386 2.0529 19.5386C3.19032 19.5386 4.10581 18.6219 4.10581 17.483V9.56633L7.54581 14.483L7.57355 14.5386C7.9342 15.0663 8.57226 15.4274 9.26581 15.4274C9.95936 15.4274 10.5697 15.0663 10.9581 14.5386L10.9858 14.483L16.9503 5.95522C16.9781 5.92744 17.0058 5.89967 17.0058 5.87189C17.0058 5.87189 17.0058 5.84411 17.0336 5.84411C17.3942 5.39967 17.9213 5.09411 18.5594 5.09411H26.8265C27.9639 5.09411 28.8794 4.17744 28.8794 3.03855C28.9071 1.87189 27.9639 0.927443 26.8265 0.927443Z" fill="white"/>
<path d="M58.6389 7.01081C59.4167 7.8997 59.8056 9.1497 59.8056 10.7608V19.5386H54.6945V11.3719C54.6945 10.7886 54.5556 10.3164 54.2778 9.98303C54 9.62192 53.6111 9.45525 53.0834 9.45525C52.4722 9.45525 52 9.6497 51.6111 10.0664C51.2222 10.483 51.0556 10.983 51.0556 11.5664V19.5108H45.9445V11.3719C45.9445 10.7886 45.8056 10.3164 45.5278 9.98303C45.25 9.62192 44.8611 9.45525 44.3334 9.45525C43.7222 9.45525 43.25 9.6497 42.8611 10.0664C42.4722 10.483 42.3056 10.983 42.3056 11.5664V19.5108H37.1945V5.98303H41.3611L41.6945 8.01081C42.1945 7.28859 42.8889 6.73303 43.7222 6.31636C44.5556 5.8997 45.4722 5.67747 46.3889 5.67747C48.4167 5.67747 49.7778 6.45525 50.5 8.01081C51.0278 7.28859 51.7222 6.73303 52.5278 6.31636C53.3611 5.8997 54.2222 5.67747 55.1389 5.67747C56.7222 5.67747 57.8611 6.12192 58.6389 7.01081Z" fill="white"/>
<path d="M63.0278 19.5385V0.95521H68.1389V19.5385H63.0278Z" fill="white"/>
<path d="M78.5556 23.4552C77.5278 24.4274 76.1112 24.9274 74.2778 24.9274C73.1667 24.9274 72.1945 24.7607 71.3334 24.4552V21.3996H73.3889C74.6667 21.3996 75.4445 20.7885 75.6667 19.5385L70.2778 5.98294H75.7778L78.3612 14.9829H78.5278L80.9167 5.98294H85.9445L81.1112 19.1218C80.4445 21.0107 79.5834 22.4552 78.5556 23.4552Z" fill="white"/>
<path d="M96.5277 5.98299V9.45521H93.6666V14.6219C93.6666 15.233 93.7777 15.6774 93.9721 15.9552C94.1666 16.233 94.5554 16.3719 95.111 16.3719H96.5555V19.3719C96.1388 19.5108 95.611 19.6219 94.9721 19.7052C94.3332 19.7885 93.7499 19.8441 93.2777 19.8441C91.7777 19.8441 90.611 19.5663 89.8054 19.0108C88.9999 18.4552 88.5832 17.5385 88.5832 16.2052V9.45521H86.6943V5.98299H88.8054L89.9166 1.87188H93.7221V5.98299H96.5277Z" fill="white"/>
<path d="M99.0554 4.39966V0.95521H104.167V4.42743H99.0554V4.39966ZM99.0554 19.5385V5.98299H104.167V19.5108H99.0554V19.5385Z" fill="white"/>
<path d="M119.806 7.12192C121.194 8.06636 121.861 9.51081 121.861 11.4553H116.917C116.917 9.92748 116.083 9.1497 114.417 9.1497C112.75 9.1497 111.917 10.1219 111.917 12.0386V13.5108C111.917 15.4275 112.778 16.3719 114.528 16.3719C116.278 16.3719 117.139 15.5941 117.139 14.0108H121.889C121.889 15.983 121.194 17.4275 119.833 18.3997C118.444 19.3441 116.667 19.8441 114.444 19.8441C112.056 19.8441 110.194 19.233 108.861 18.0386C107.5 16.8441 106.833 15.0941 106.833 12.7608C106.833 10.4275 107.5 8.67748 108.861 7.48303C110.222 6.28859 112.083 5.67747 114.444 5.67747C116.639 5.67747 118.444 6.1497 119.806 7.12192Z" fill="white"/>
<path d="M135.556 6.76076C136.806 7.48298 137.444 8.56631 137.444 10.0663H132.694C132.694 9.56631 132.472 9.23298 132.028 9.01076C131.722 8.84409 131.333 8.76076 130.861 8.76076C129.639 8.76076 129.028 9.03854 129.028 9.62187C129.028 9.9552 129.25 10.1774 129.667 10.3163C130.083 10.4552 130.806 10.5941 131.778 10.7608C132.972 10.9274 133.972 11.1219 134.778 11.3719C135.583 11.5941 136.278 12.0108 136.889 12.5941C137.5 13.1774 137.778 14.0108 137.778 15.0663C137.778 16.7885 137.139 18.0108 135.833 18.7608C134.556 19.483 132.861 19.8719 130.778 19.8719C129.583 19.8719 128.444 19.7052 127.389 19.3719C126.333 19.0385 125.472 18.5108 124.806 17.8163C124.139 17.1219 123.806 16.233 123.806 15.1497H128.556V15.2608C128.583 15.8441 128.806 16.2608 129.278 16.483C129.75 16.7052 130.25 16.8163 130.778 16.8163C132.194 16.8163 132.917 16.483 132.917 15.8163C132.917 15.483 132.694 15.233 132.25 15.0663C131.806 14.8997 131.083 14.7608 130.083 14.5663C128.861 14.3719 127.861 14.1496 127.083 13.8996C126.306 13.6496 125.639 13.2608 125.056 12.6774C124.472 12.0941 124.194 11.3163 124.194 10.2885C124.194 8.62187 124.833 7.4552 126.083 6.76076C127.333 6.06631 128.972 5.7052 131 5.7052C132.778 5.67742 134.306 6.03854 135.556 6.76076Z" fill="white"/>
<path d="M28.5278 15.7608C28.5278 17.8442 26.8333 19.5386 24.75 19.5386H20.25C19.1111 19.5386 18.1945 18.6219 18.1945 17.483C18.1945 16.3442 19.1111 15.4275 20.25 15.4275H28.1667C28.3611 15.3997 28.5278 15.5664 28.5278 15.7608Z" fill="white"/>
<path d="M28.1667 8.37191H20.25C19.1111 8.37191 18.1945 9.28857 18.1945 10.4275C18.1945 11.5664 19.1111 12.483 20.25 12.483H24.7222C26.8056 12.483 28.5 10.7886 28.5 8.70524C28.5278 8.53857 28.3611 8.37191 28.1667 8.37191Z" fill="white"/>
<path d="M26.8611 0.927443H16.5278C15.8333 0.927443 15.2222 1.28855 14.8333 1.81633L9.30556 9.733L3.75 1.81633C3.38889 1.28855 2.77778 0.927443 2.05556 0.927443C0.916667 0.927443 0 1.87189 0 3.01078V17.483C0 18.6219 0.916667 19.5386 2.05556 19.5386C3.19445 19.5386 4.11111 18.6219 4.11111 17.483V9.56633L7.55556 14.483L7.58333 14.5386C7.94445 15.0663 8.58334 15.4274 9.27778 15.4274C9.97223 15.4274 10.5833 15.0663 10.9722 14.5386L11 14.483L16.9722 5.95522C17 5.92744 17.0278 5.89967 17.0278 5.87189C17.0278 5.87189 17.0278 5.84411 17.0556 5.84411C17.4167 5.39967 17.9445 5.09411 18.5833 5.09411H26.8611C28 5.09411 28.9167 4.17744 28.9167 3.03855C28.9445 1.87189 28 0.927443 26.8611 0.927443Z" fill="white"/>
</svg>
