<svg width="202" height="39" viewBox="0 0 202 39" fill="none" xmlns="http://www.w3.org/2000/svg">
<path d="M58.5641 17.0833C59.3408 17.9722 59.7292 19.2222 59.7292 20.8333V29.6111H54.6247V21.4444C54.6247 20.8611 54.486 20.3889 54.2086 20.0556C53.9312 19.6944 53.5428 19.5278 53.0157 19.5278C52.4053 19.5278 51.9337 19.7222 51.5453 20.1389C51.157 20.5556 50.9905 21.0556 50.9905 21.6389V29.5833H45.886V21.4444C45.886 20.8611 45.7473 20.3889 45.4699 20.0556C45.1924 19.6944 44.8041 19.5278 44.277 19.5278C43.6666 19.5278 43.195 19.7222 42.8066 20.1389C42.4182 20.5556 42.2518 21.0556 42.2518 21.6389V29.5833H37.1473V16.0556H41.3086L41.6415 18.0833C42.1408 17.3611 42.8344 16.8056 43.6666 16.3889C44.4989 15.9722 45.4144 15.75 46.3299 15.75C48.355 15.75 49.7144 16.5278 50.4357 18.0833C50.9628 17.3611 51.6563 16.8056 52.4608 16.3889C53.2931 15.9722 54.1531 15.75 55.0686 15.75C56.6499 15.75 57.7873 16.1944 58.5641 17.0833Z" fill="black"/>
<path d="M62.9465 29.6112V11.0278H68.0511V29.6112H62.9465Z" fill="black"/>
<path d="M78.4544 33.5279C77.4279 34.5001 76.0131 35.0001 74.1821 35.0001C73.0724 35.0001 72.1014 34.8334 71.2414 34.5279V31.4723H73.2944C74.5705 31.4723 75.3473 30.8612 75.5692 29.6112L70.1873 16.0557H75.6802L78.2602 25.0557H78.4266L80.8124 16.0557H85.8337L81.0066 29.1946C80.3408 31.0834 79.4808 32.5279 78.4544 33.5279Z" fill="black"/>
<path d="M96.403 16.0557V19.5279H93.5456V24.6946C93.5456 25.3057 93.6566 25.7501 93.8508 26.0279C94.045 26.3057 94.4334 26.4446 94.9882 26.4446H96.4308V29.4446C96.0147 29.5835 95.4876 29.6946 94.8495 29.7779C94.2114 29.8613 93.6288 29.9168 93.1572 29.9168C91.6592 29.9168 90.494 29.639 89.6895 29.0835C88.885 28.5279 88.4688 27.6113 88.4688 26.2779V19.5279H86.5824V16.0557H88.6908L89.8005 11.9446H93.6011V16.0557H96.403Z" fill="black"/>
<path d="M98.9276 14.4723V11.0278H104.032V14.5001H98.9276V14.4723ZM98.9276 29.6112V16.0556H104.032V29.5834H98.9276V29.6112Z" fill="black"/>
<path d="M119.651 17.1944C121.038 18.1389 121.704 19.5833 121.704 21.5278H116.766C116.766 20 115.934 19.2222 114.269 19.2222C112.605 19.2222 111.772 20.1944 111.772 22.1111V23.5833C111.772 25.5 112.632 26.4444 114.38 26.4444C116.128 26.4444 116.988 25.6667 116.988 24.0833H121.732C121.732 26.0556 121.038 27.5 119.679 28.4722C118.292 29.4167 116.516 29.9167 114.297 29.9167C111.911 29.9167 110.052 29.3056 108.721 28.1111C107.361 26.9167 106.696 25.1667 106.696 22.8333C106.696 20.5 107.361 18.75 108.721 17.5556C110.08 16.3611 111.939 15.75 114.297 15.75C116.488 15.75 118.292 16.2222 119.651 17.1944Z" fill="black"/>
<path d="M135.381 16.8334C136.629 17.5556 137.267 18.639 137.267 20.139H132.523C132.523 19.639 132.301 19.3056 131.857 19.0834C131.552 18.9167 131.164 18.8334 130.692 18.8334C129.472 18.8334 128.861 19.1112 128.861 19.6945C128.861 20.0279 129.083 20.2501 129.499 20.389C129.916 20.5279 130.637 20.6667 131.608 20.8334C132.801 21.0001 133.799 21.1945 134.604 21.4445C135.408 21.6667 136.102 22.0834 136.712 22.6667C137.323 23.2501 137.6 24.0834 137.6 25.139C137.6 26.8612 136.962 28.0834 135.658 28.8334C134.382 29.5556 132.69 29.9445 130.609 29.9445C129.416 29.9445 128.279 29.7779 127.225 29.4445C126.17 29.1112 125.31 28.5834 124.645 27.889C123.979 27.1945 123.646 26.3056 123.646 25.2223H128.39V25.3334C128.417 25.9167 128.639 26.3334 129.111 26.5556C129.583 26.7779 130.082 26.889 130.609 26.889C132.024 26.889 132.745 26.5556 132.745 25.889C132.745 25.5556 132.523 25.3056 132.079 25.139C131.636 24.9723 130.914 24.8334 129.916 24.639C128.695 24.4445 127.696 24.2223 126.919 23.9723C126.143 23.7223 125.477 23.3334 124.894 22.7501C124.312 22.1667 124.034 21.389 124.034 20.3612C124.034 18.6945 124.672 17.5279 125.921 16.8334C127.169 16.139 128.806 15.7779 130.831 15.7779C132.607 15.7501 134.132 16.1112 135.381 16.8334Z" fill="black"/>
<path d="M28.4911 25.8334C28.4911 27.9168 26.7988 29.6112 24.7182 29.6112H20.224C19.0866 29.6112 18.1711 28.6946 18.1711 27.5557C18.1711 26.4168 19.0866 25.5001 20.224 25.5001H28.1304C28.3246 25.4723 28.4911 25.639 28.4911 25.8334Z" fill="black"/>
<path d="M28.1304 18.4443H20.224C19.0866 18.4443 18.1711 19.361 18.1711 20.4999C18.1711 21.6388 19.0866 22.5554 20.224 22.5554H24.6904C26.7711 22.5554 28.4633 20.861 28.4633 18.7777C28.4911 18.611 28.3246 18.4443 28.1304 18.4443Z" fill="black"/>
<path d="M26.8265 11H16.5065C15.8129 11 15.2026 11.3611 14.8142 11.8889L9.29355 19.8056L3.74516 11.8889C3.38452 11.3611 2.77419 11 2.0529 11C0.915484 11 0 11.9444 0 13.0833V27.5556C0 28.6945 0.915484 29.6111 2.0529 29.6111C3.19032 29.6111 4.10581 28.6945 4.10581 27.5556V19.6389L7.54581 24.5556L7.57355 24.6111C7.9342 25.1389 8.57226 25.5 9.26581 25.5C9.95936 25.5 10.5697 25.1389 10.9581 24.6111L10.9858 24.5556L16.9503 16.0278C16.9781 16 17.0058 15.9722 17.0058 15.9444C17.0058 15.9444 17.0058 15.9167 17.0336 15.9167C17.3942 15.4722 17.9213 15.1667 18.5594 15.1667H26.8265C27.9639 15.1667 28.8794 14.25 28.8794 13.1111C28.9071 11.9444 27.9639 11 26.8265 11Z" fill="black"/>
<path d="M190.646 4.74447C190.833 4.74447 191 4.86053 191.069 5.0408L192.102 7.8239C192.465 8.80428 193.222 9.56981 194.181 9.93036L197.003 10.9873C197.025 10.9947 197.039 11.012 197.058 11.0219C197.075 11.0317 197.089 11.0391 197.103 11.0515C197.125 11.0688 197.144 11.0861 197.163 11.1058C197.192 11.1379 197.216 11.175 197.233 11.2145C197.242 11.2392 197.252 11.2639 197.254 11.291C197.261 11.3157 197.264 11.3404 197.264 11.3676L197.254 11.4491C197.252 11.4738 197.242 11.4985 197.233 11.5256C197.216 11.5676 197.19 11.6047 197.161 11.6368C197.144 11.6565 197.125 11.6738 197.103 11.6911C197.092 11.701 197.077 11.7084 197.065 11.7158C197.044 11.7281 197.027 11.7479 197.003 11.7553L194.181 12.8122C193.225 13.1703 192.465 13.9358 192.102 14.9162L191.069 17.6993C191.002 17.8796 190.835 18.0006 190.646 18.0006C190.45 18.0006 190.276 17.8672 190.218 17.6746L189.442 15.1286C189.105 14.0272 188.28 13.158 187.222 12.7851L184.26 11.7479C184.227 11.7355 184.196 11.7182 184.17 11.701C184.151 11.6886 184.134 11.6763 184.117 11.6565C184.076 11.6195 184.048 11.5701 184.026 11.5133C184.019 11.4985 184.014 11.4787 184.012 11.459C184.002 11.4293 184 11.3997 184 11.3676C184 11.3355 184.002 11.3034 184.012 11.2762C184.014 11.2565 184.022 11.2392 184.026 11.2219C184.045 11.1725 184.074 11.128 184.11 11.0885C184.124 11.0737 184.141 11.0589 184.155 11.0466C184.189 11.0219 184.222 10.9996 184.263 10.9873L187.224 9.95011C188.283 9.57969 189.107 8.70796 189.444 7.60905L190.221 5.06303C190.278 4.86794 190.453 4.73706 190.649 4.73706L190.646 4.74447Z" fill="url(#paint0_linear_1271_379)"/>
<path d="M202.001 7.11416C202.001 7.20803 201.942 7.29098 201.852 7.32591L200.46 7.84326C199.971 8.02444 199.588 8.40427 199.407 8.88234L198.877 10.2925C198.877 10.2925 198.866 10.31 198.859 10.3209C198.855 10.3296 198.85 10.3362 198.846 10.3427C198.837 10.3536 198.828 10.3624 198.819 10.3711C198.803 10.3842 198.785 10.3973 198.765 10.406C198.751 10.4104 198.74 10.4148 198.726 10.4169C198.713 10.4191 198.702 10.4213 198.688 10.4213L198.647 10.4169C198.634 10.4169 198.623 10.4104 198.609 10.406C198.589 10.3973 198.571 10.3842 198.553 10.3711C198.541 10.3624 198.535 10.3536 198.526 10.3427C198.521 10.3362 198.517 10.3296 198.512 10.3231C198.505 10.3122 198.496 10.3034 198.492 10.2925L197.962 8.88234C197.784 8.40427 197.4 8.02444 196.911 7.84326L195.52 7.32591C195.43 7.29316 195.369 7.20803 195.369 7.11416C195.369 7.01593 195.434 6.92861 195.531 6.90023L196.803 6.51167C197.353 6.34359 197.788 5.93101 197.975 5.40274L198.494 3.92052C198.501 3.90306 198.508 3.88778 198.517 3.87469C198.523 3.86595 198.53 3.85722 198.539 3.84849C198.557 3.82884 198.582 3.81356 198.611 3.80265C198.62 3.80046 198.629 3.7961 198.638 3.7961C198.652 3.79173 198.668 3.78955 198.683 3.78955C198.699 3.78955 198.715 3.78955 198.729 3.7961C198.738 3.7961 198.747 3.80046 198.756 3.80265C198.78 3.81138 198.803 3.82666 198.821 3.84412C198.83 3.85067 198.835 3.8594 198.841 3.86814C198.855 3.8856 198.864 3.90088 198.871 3.92271L199.389 5.40492C199.574 5.93319 200.009 6.34577 200.56 6.51385L201.831 6.90242C201.928 6.93079 201.994 7.01811 201.994 7.11634L202.001 7.11416Z" fill="url(#paint1_linear_1271_379)"/>
<path d="M196.311 2.37557C196.311 2.44176 196.269 2.50085 196.206 2.52685L195.212 2.8956C194.863 3.02561 194.588 3.29508 194.459 3.63782L194.082 4.64478C194.082 4.64478 194.072 4.6566 194.07 4.66369C194.067 4.66842 194.062 4.67551 194.06 4.68024C194.055 4.68733 194.048 4.69442 194.04 4.70152C194.028 4.71097 194.016 4.72043 194.001 4.72752C193.991 4.72988 193.984 4.73461 193.974 4.73461C193.965 4.73461 193.957 4.73697 193.947 4.73697H193.918C193.918 4.73697 193.901 4.72988 193.891 4.72515C193.876 4.71806 193.864 4.71097 193.852 4.69915C193.845 4.69206 193.84 4.68733 193.832 4.67788C193.83 4.67315 193.825 4.66842 193.823 4.66369C193.818 4.6566 193.81 4.64951 193.808 4.64242L193.431 3.63546C193.304 3.29508 193.03 3.02325 192.68 2.89324L191.687 2.52449C191.623 2.50085 191.579 2.4394 191.579 2.37321C191.579 2.3023 191.625 2.24084 191.696 2.21957L192.607 1.94301C193.001 1.82245 193.311 1.52935 193.443 1.15115L193.813 0.0945489C193.818 0.0827301 193.823 0.0709115 193.83 0.0614564C193.835 0.0543652 193.84 0.0472734 193.845 0.0425459C193.859 0.0283634 193.874 0.0165447 193.896 0.00945345C193.901 0.00945345 193.908 0.00472492 193.916 0.00472492C193.925 0.00236116 193.938 0 193.947 0C193.957 0 193.969 -2.5968e-06 193.979 0.00472492C193.987 0.00472492 193.994 0.00708969 193.999 0.00945345C194.016 0.0165447 194.033 0.0259986 194.045 0.0378174C194.05 0.0425449 194.055 0.0496379 194.06 0.0543654C194.07 0.0661842 194.077 0.0780039 194.082 0.0921864L194.451 1.14878C194.584 1.52698 194.894 1.82009 195.288 1.94064L196.198 2.2172C196.269 2.23848 196.316 2.29994 196.316 2.37085L196.311 2.37557Z" fill="url(#paint2_linear_1271_379)"/>
<path d="M148.261 30C148.368 30 148.528 29.8507 148.741 29.552C148.976 29.2533 149.242 28.752 149.541 28.048C149.69 27.728 149.925 27.184 150.245 26.416C150.586 25.6267 150.97 24.72 151.397 23.696C151.845 22.6507 152.304 21.5627 152.773 20.432C153.264 19.3013 153.722 18.2133 154.149 17.168C154.597 16.1227 154.981 15.2053 155.301 14.416C155.642 13.6267 155.877 13.0613 156.005 12.72C156.282 12.0373 156.432 11.5467 156.453 11.248C156.474 10.9493 156.432 10.8 156.325 10.8H163.301C163.216 10.8 163.184 10.9493 163.205 11.248C163.226 11.5253 163.376 12.016 163.653 12.72C163.781 13.0613 164.005 13.6267 164.325 14.416C164.645 15.184 165.018 16.0907 165.445 17.136C165.872 18.16 166.32 19.2373 166.789 20.368C167.258 21.4987 167.706 22.5867 168.133 23.632C168.56 24.656 168.944 25.5627 169.285 26.352C169.626 27.1413 169.872 27.7067 170.021 28.048C170.341 28.752 170.65 29.2533 170.949 29.552C171.248 29.8507 171.472 30 171.621 30H164.357C164.528 29.9787 164.666 29.8187 164.773 29.52C164.901 29.2 164.901 28.7093 164.773 28.048C164.752 27.8987 164.73 27.7813 164.709 27.696C164.688 27.5893 164.645 27.44 164.581 27.248C164.496 26.928 164.4 26.704 164.293 26.576C164.186 26.4267 164.005 26.3413 163.749 26.32C163.514 26.2987 163.12 26.288 162.565 26.288H157.061C156.485 26.288 156.058 26.3093 155.781 26.352C155.504 26.3733 155.312 26.448 155.205 26.576C155.098 26.704 155.013 26.9173 154.949 27.216C154.928 27.3227 154.896 27.4613 154.853 27.632C154.832 27.8027 154.81 27.9413 154.789 28.048C154.64 28.7307 154.597 29.2213 154.661 29.52C154.746 29.8187 154.853 29.9787 154.981 30H148.261ZM157.893 22.768H161.637C162.256 22.768 162.597 22.7147 162.661 22.608C162.725 22.5013 162.693 22.2667 162.565 21.904C162.288 21.2213 162.01 20.528 161.733 19.824C161.456 19.0987 161.189 18.3947 160.933 17.712C160.698 17.0293 160.485 16.4 160.293 15.824C160.122 15.2267 159.973 14.7253 159.845 14.32H159.781C159.482 15.1093 159.173 15.9413 158.853 16.816C158.533 17.6907 158.234 18.5013 157.957 19.248C157.68 19.9947 157.456 20.6133 157.285 21.104C157.114 21.5733 157.029 21.808 157.029 21.808C156.88 22.1493 156.826 22.3947 156.869 22.544C156.912 22.6933 157.253 22.768 157.893 22.768ZM174.9 30C175.049 30 175.188 29.8613 175.316 29.584C175.465 29.2853 175.54 28.784 175.54 28.08V12.72C175.54 12.0373 175.465 11.5467 175.316 11.248C175.188 10.9493 175.049 10.8 174.9 10.8H181.076C180.927 10.8 180.777 10.9493 180.628 11.248C180.479 11.5253 180.404 12.0267 180.404 12.752V28.08C180.404 28.7627 180.479 29.2533 180.628 29.552C180.777 29.8507 180.927 30 181.076 30H174.9Z" fill="black"/>
<defs>
<linearGradient id="paint0_linear_1271_379" x1="188.974" y1="5.15155" x2="189.803" y2="18.8296" gradientUnits="userSpaceOnUse">
<stop offset="0.3125" stop-color="#EB19FF"/>
<stop offset="1" stop-color="#711FFF"/>
</linearGradient>
<linearGradient id="paint1_linear_1271_379" x1="197.856" y1="3.99679" x2="198.27" y2="10.8358" gradientUnits="userSpaceOnUse">
<stop offset="0.3125" stop-color="#EB19FF"/>
<stop offset="1" stop-color="#711FFF"/>
</linearGradient>
<linearGradient id="paint2_linear_1271_379" x1="193.355" y1="0.14803" x2="193.651" y2="5.03303" gradientUnits="userSpaceOnUse">
<stop offset="0.3125" stop-color="#EB19FF"/>
<stop offset="1" stop-color="#711FFF"/>
</linearGradient>
</defs>
</svg>
