<svg width="40" height="41" viewBox="0 0 40 41" fill="none" xmlns="http://www.w3.org/2000/svg">
<mask id="mask0_94_2032" style="mask-type:alpha" maskUnits="userSpaceOnUse" x="0" y="0" width="40" height="41">
<rect y="0.473633" width="40" height="40" fill="#D9D9D9"/>
</mask>
<g mask="url(#mask0_94_2032)">
<path d="M12.7805 36.2749C12.2238 36.2749 11.6987 36.1713 11.205 35.9641C10.7114 35.7568 10.2631 35.4531 9.86004 35.0528L2.60254 27.8132L3.56087 26.8132C3.82171 26.5527 4.12296 26.3903 4.46462 26.3261C4.80657 26.262 5.15921 26.2781 5.52254 26.3745L8.91046 27.1436V13.807C8.91046 13.5709 8.99032 13.3729 9.15004 13.2132C9.31004 13.0535 9.50823 12.9736 9.74462 12.9736C9.98101 12.9736 10.1789 13.0535 10.3384 13.2132C10.4975 13.3729 10.5771 13.5709 10.5771 13.807V29.3486L5.17962 27.9899L11.0096 33.884C11.2618 34.136 11.5332 34.3197 11.8238 34.4353C12.1143 34.5506 12.4349 34.6082 12.7855 34.6082H18.5896C19.7355 34.6082 20.7164 34.2003 21.5325 33.3845C22.3484 32.5684 22.7563 31.5874 22.7563 30.4415V25.1532C22.7563 24.9171 22.8363 24.7192 22.9963 24.5595C23.1563 24.3997 23.3545 24.3199 23.5909 24.3199C23.8273 24.3199 24.025 24.3997 24.1842 24.5595C24.3434 24.7192 24.423 24.9171 24.423 25.1532V30.4415C24.423 32.0613 23.8557 33.4384 22.7213 34.5728C21.5866 35.7075 20.2093 36.2749 18.5896 36.2749H12.7805ZM13.5259 25.5699V18.8711C13.5259 18.635 13.6057 18.4371 13.7655 18.2774C13.9255 18.1177 14.1237 18.0378 14.36 18.0378C14.5964 18.0378 14.7942 18.1177 14.9534 18.2774C15.1128 18.4371 15.1925 18.635 15.1925 18.8711V25.5699H13.5259ZM18.1409 25.5699V21.1786C18.1409 20.9425 18.2209 20.7446 18.3809 20.5849C18.5409 20.4252 18.7391 20.3453 18.9755 20.3453C19.2118 20.3453 19.4096 20.4252 19.5688 20.5849C19.728 20.7446 19.8075 20.9425 19.8075 21.1786V25.5699H18.1409ZM26.8905 17.012C24.8546 17.012 22.9756 16.4896 21.2534 15.4449C19.5312 14.3999 18.1518 12.9992 17.1155 11.2428C18.1518 9.48641 19.5313 8.08585 21.2538 7.04113C22.9766 5.99613 24.8559 5.47363 26.8917 5.47363C28.9275 5.47363 30.8066 5.99613 32.5288 7.04113C34.251 8.08585 35.6303 9.48641 36.6667 11.2428C35.6303 12.9992 34.2509 14.3999 32.5284 15.4449C30.8056 16.4896 28.9263 17.012 26.8905 17.012ZM26.8863 15.3453C28.4302 15.3453 29.8874 14.9735 31.258 14.2299C32.6288 13.4863 33.78 12.4906 34.7117 11.2428C33.78 9.99502 32.6303 8.99933 31.2625 8.25572C29.895 7.51211 28.4395 7.1403 26.8959 7.1403C25.352 7.1403 23.8948 7.51211 22.5242 8.25572C21.1534 8.99933 20.0021 9.99502 19.0705 11.2428C20.0021 12.4906 21.1518 13.4863 22.5196 14.2299C23.8871 14.9735 25.3427 15.3453 26.8863 15.3453ZM26.895 12.9095C26.4331 12.9095 26.0392 12.7478 25.7134 12.4245C25.3873 12.1011 25.2242 11.7085 25.2242 11.2465C25.2242 10.7846 25.3859 10.3907 25.7092 10.0649C26.0328 9.73905 26.4255 9.57613 26.8871 9.57613C27.3491 9.57613 27.743 9.7378 28.0688 10.0611C28.3946 10.3845 28.5575 10.7771 28.5575 11.239C28.5575 11.701 28.3959 12.0949 28.0725 12.4207C27.7492 12.7465 27.3567 12.9095 26.895 12.9095Z" fill="white"/>
</g>
</svg>
