<svg width="81" height="81" viewBox="0 0 81 81" fill="none" xmlns="http://www.w3.org/2000/svg">
<mask id="mask0_184_1695" style="mask-type:alpha" maskUnits="userSpaceOnUse" x="0" y="0" width="81" height="81">
<rect x="0.5" y="0.84082" width="80" height="80" fill="url(#paint0_linear_184_1695)"/>
</mask>
<g mask="url(#mask0_184_1695)">
<path d="M10.5 71.6103V68.277H70.5V71.6103H10.5ZM17.1667 64.1745V48.5336C15.2478 44.7214 13.7992 41.0495 12.8208 37.5178C11.8419 33.9856 11.3525 30.6403 11.3525 27.482C11.3525 24.8625 11.6869 22.1384 12.3558 19.3095C13.0247 16.48 14.0492 13.2042 15.4292 9.48198C15.6175 8.91365 15.9339 8.44253 16.3783 8.06864C16.8228 7.69476 17.3569 7.50781 17.9808 7.50781C18.7203 7.50781 19.3378 7.80281 19.8333 8.39281C20.3289 8.98226 20.5297 9.65531 20.4358 10.412L19.5833 17.2895C19.25 20.2128 19.6036 23.0825 20.6442 25.8986C21.6847 28.7148 23.1922 31.2286 25.1667 33.4403C27.1411 35.652 29.4594 37.4384 32.1217 38.7995C34.7839 40.1606 37.5767 40.8411 40.5 40.8411C43.9617 40.8411 47.1058 41.0814 49.9325 41.562C52.7597 42.0431 55.1669 42.7514 57.1542 43.687C59.2692 44.7086 60.9111 46.0239 62.08 47.6328C63.2489 49.2417 63.8333 51.2556 63.8333 53.6745V64.1745H17.1667ZM20.5 60.8411H60.5V53.6745C60.5 52.1273 60.1025 50.7759 59.3075 49.6203C58.5125 48.4642 57.3331 47.5164 55.7692 46.777C53.9614 45.9225 51.75 45.275 49.135 44.8345C46.5194 44.3945 43.6411 44.1745 40.5 44.1745C37.09 44.1745 33.8367 43.3817 30.74 41.7961C27.6439 40.2106 24.9561 38.1325 22.6767 35.562C20.3967 32.9914 18.6689 30.0748 17.4933 26.812C16.3183 23.5492 15.9317 20.2256 16.3333 16.8411C15.7778 18.5078 15.375 20.2428 15.125 22.0461C14.875 23.8495 14.75 25.6614 14.75 27.482C14.75 30.3198 15.2447 33.3742 16.2342 36.6453C17.2236 39.917 18.6456 43.5678 20.5 47.5978V60.8411ZM40.5 35.9695C37.7306 35.9695 35.3717 34.995 33.4233 33.0461C31.4744 31.0973 30.5 28.7384 30.5 25.9695C30.5 23.2 31.4744 20.8409 33.4233 18.892C35.3717 16.9436 37.7306 15.9695 40.5 15.9695C43.2694 15.9695 45.6283 16.9436 47.5767 18.892C49.5256 20.8409 50.5 23.2 50.5 25.9695C50.5 28.7384 49.5256 31.0973 47.5767 33.0461C45.6283 34.995 43.2694 35.9695 40.5 35.9695ZM40.5 32.6361C42.3333 32.6361 43.9028 31.9834 45.2083 30.6778C46.5139 29.3723 47.1667 27.8028 47.1667 25.9695C47.1667 24.1361 46.5139 22.5667 45.2083 21.2611C43.9028 19.9556 42.3333 19.3028 40.5 19.3028C38.6667 19.3028 37.0972 19.9556 35.7917 21.2611C34.4861 22.5667 33.8333 24.1361 33.8333 25.9695C33.8333 27.8028 34.4861 29.3723 35.7917 30.6778C37.0972 31.9834 38.6667 32.6361 40.5 32.6361ZM28.9617 64.1745V62.822C28.9617 59.6981 30.0611 57.0484 32.26 54.8728C34.4583 52.6978 37.1194 51.6103 40.2433 51.6103H51.5258V54.9436H40.2433C38.0128 54.9436 36.1303 55.7098 34.5958 57.242C33.0619 58.7736 32.295 60.6336 32.295 62.822V64.1745H28.9617Z" fill="url(#paint1_linear_184_1695)"/>
</g>
<defs>
<linearGradient id="paint0_linear_184_1695" x1="91.8333" y1="99.5075" x2="0.5" y2="-10.4925" gradientUnits="userSpaceOnUse">
<stop offset="0.36" stop-color="#E89300"/>
<stop offset="1" stop-color="#FC0000"/>
</linearGradient>
<linearGradient id="paint1_linear_184_1695" x1="79" y1="86.5676" x2="5.07855" y2="3.23586" gradientUnits="userSpaceOnUse">
<stop offset="0.36" stop-color="#E89300"/>
<stop offset="1" stop-color="#FC0000"/>
</linearGradient>
</defs>
</svg>
