<svg width="81" height="81" viewBox="0 0 81 81" fill="none" xmlns="http://www.w3.org/2000/svg">
<mask id="mask0_184_1704" style="mask-type:alpha" maskUnits="userSpaceOnUse" x="0" y="0" width="81" height="81">
<rect x="0.5" y="0.84082" width="80" height="80" fill="url(#paint0_linear_184_1704)"/>
</mask>
<g mask="url(#mask0_184_1704)">
<path d="M34.4667 55.3922C40.1983 55.3922 45.0619 53.3861 49.0575 49.3739C53.0536 45.3616 55.0517 40.4897 55.0517 34.758C55.0517 29.0269 53.05 24.1528 49.0467 20.1355C45.0433 16.1183 40.1822 14.1097 34.4633 14.1097C28.7444 14.1097 23.8764 16.1158 19.8592 20.128C15.8419 24.1403 13.8333 29.0119 13.8333 34.743C13.8333 40.4747 15.8394 45.3491 19.8517 49.3664C23.8633 53.3836 28.735 55.3922 34.4667 55.3922ZM31.1025 43.8922L46.9233 27.988L44.545 25.6097L31.1025 39.1355L24.34 32.3922L21.9617 34.7505L31.1025 43.8922ZM34.4742 58.7255C27.8419 58.7255 22.1881 56.3878 17.5125 51.7122C12.8375 47.0372 10.5 41.3833 10.5 34.7505C10.5 28.1183 12.8375 22.4644 17.5125 17.7889C22.1881 13.1139 27.8419 10.7764 34.4742 10.7764C41.1069 10.7764 46.7503 13.1139 51.4042 17.7889C56.0581 22.4644 58.385 28.1183 58.385 34.7505C58.385 37.7694 57.8667 40.6128 56.83 43.2805C55.7939 45.9489 54.3656 48.3364 52.545 50.443L70.5 68.4172L68.205 70.8405L50.1667 52.8214C48.06 54.6847 45.6725 56.1344 43.0042 57.1705C40.3358 58.2072 37.4925 58.7255 34.4742 58.7255Z" fill="url(#paint1_linear_184_1704)"/>
</g>
<defs>
<linearGradient id="paint0_linear_184_1704" x1="91.8333" y1="99.5075" x2="0.5" y2="-10.4925" gradientUnits="userSpaceOnUse">
<stop offset="0.265" stop-color="#E8006C"/>
<stop offset="1" stop-color="#7A00EB"/>
</linearGradient>
<linearGradient id="paint1_linear_184_1704" x1="79" y1="84.8555" x2="10.4133" y2="2.33934" gradientUnits="userSpaceOnUse">
<stop offset="0.265" stop-color="#E8006C"/>
<stop offset="1" stop-color="#7A00EB"/>
</linearGradient>
</defs>
</svg>
