<svg width="22" height="22" viewBox="0 0 22 22" fill="none" xmlns="http://www.w3.org/2000/svg">
<mask id="mask0_519_703" style="mask-type:alpha" maskUnits="userSpaceOnUse" x="0" y="0" width="23" height="23">
<rect x="0.000366211" y="0.000488281" width="22" height="22" fill="#D9D9D9"/>
</mask>
<g mask="url(#mask0_519_703)">
<path d="M5.994 4.40771H14.9844V14.491L9.23763 20.1673L8.832 19.7619C8.74858 19.6785 8.67838 19.5715 8.6214 19.441C8.56441 19.3106 8.53592 19.1907 8.53592 19.0815V18.9369L9.47367 14.491H3.31458C2.93142 14.491 2.58881 14.34 2.28677 14.038C1.98473 13.7359 1.83371 13.3933 1.83371 13.0102V11.882C1.83371 11.7986 1.84227 11.7075 1.85938 11.6088C1.87633 11.5101 1.90185 11.4191 1.93592 11.3357L4.43911 5.40184C4.56484 5.11981 4.77636 4.88362 5.07367 4.69326C5.37113 4.5029 5.6779 4.40771 5.994 4.40771ZM15.9011 14.491V4.40771H19.2504V14.491H15.9011Z" fill="#454545"/>
</g>
</svg>
