<svg width="28" height="29" viewBox="0 0 28 29" fill="none" xmlns="http://www.w3.org/2000/svg">
<mask id="mask0_351_427" style="mask-type:alpha" maskUnits="userSpaceOnUse" x="0" y="0" width="28" height="29">
<rect y="0.641602" width="28" height="28" fill="#D9D9D9"/>
</mask>
<g mask="url(#mask0_351_427)">
<path d="M7.62817 6.25061H19.0705V19.0839L11.7564 26.3082L11.2402 25.7923C11.134 25.6861 11.0447 25.55 10.9721 25.3839C10.8996 25.2179 10.8633 25.0653 10.8633 24.9263V24.7423L12.0568 19.0839H4.218C3.73034 19.0839 3.29429 18.8917 2.90988 18.5073C2.52546 18.1229 2.33325 17.6869 2.33325 17.1992V15.7633C2.33325 15.6572 2.34414 15.5413 2.36592 15.4157C2.3875 15.29 2.41997 15.1742 2.46334 15.068L5.64921 7.51586C5.80924 7.15692 6.07845 6.85631 6.45684 6.61403C6.83542 6.37175 7.22586 6.25061 7.62817 6.25061ZM20.2372 19.0839V6.25061H24.4999V19.0839H20.2372Z" fill="#F63030"/>
</g>
</svg>
