<svg width="22" height="22" viewBox="0 0 22 22" fill="none" xmlns="http://www.w3.org/2000/svg">
<mask id="mask0_519_697" style="mask-type:alpha" maskUnits="userSpaceOnUse" x="0" y="0" width="23" height="23">
<rect x="0.000366211" y="0.000488281" width="22" height="22" fill="#D9D9D9"/>
</mask>
<g mask="url(#mask0_519_697)">
<path d="M16.0067 18.3338H7.0163V8.25045L12.7631 2.57422L13.1687 2.97961C13.2522 3.06303 13.3224 3.16998 13.3793 3.30045C13.4363 3.43092 13.4648 3.55077 13.4648 3.66001V3.80461L12.5271 8.25045H18.6862C19.0693 8.25045 19.4119 8.40147 19.714 8.70351C20.016 9.00555 20.167 9.34816 20.167 9.73132V10.8595C20.167 10.9429 20.1585 11.034 20.1414 11.1327C20.1244 11.2314 20.0989 11.3224 20.0648 11.4058L17.5616 17.3397C17.4359 17.6217 17.2244 17.8579 16.9271 18.0482C16.6296 18.2386 16.3228 18.3338 16.0067 18.3338ZM6.09964 8.25045V18.3338H2.75037V8.25045H6.09964Z" fill="#454545"/>
</g>
</svg>
