<svg width="28" height="28" viewBox="0 0 28 28" fill="none" xmlns="http://www.w3.org/2000/svg">
<mask id="mask0_331_97" style="mask-type:alpha" maskUnits="userSpaceOnUse" x="0" y="0" width="28" height="28">
<rect width="28" height="28" fill="#D9D9D9"/>
</mask>
<g mask="url(#mask0_331_97)">
<path d="M20.3718 23.3333H8.66017V10.5L15.9743 3.2757L16.4903 3.79165C16.5966 3.89782 16.6861 4.03393 16.7586 4.19999C16.8311 4.36604 16.8674 4.51858 16.8674 4.65761V4.84165L15.6736 10.5H23.7819C24.2696 10.5 24.7056 10.6922 25.09 11.0766C25.4745 11.461 25.6667 11.8971 25.6667 12.3847V13.8206C25.6667 13.9268 25.6547 14.0427 25.6308 14.1683C25.6069 14.2939 25.5755 14.4098 25.5366 14.5159L22.3507 22.0681C22.1907 22.427 21.9215 22.7276 21.5431 22.9699C21.1645 23.2122 20.7741 23.3333 20.3718 23.3333ZM9.82683 22.1667H20.3718C20.5363 22.1667 20.7045 22.1217 20.8766 22.0319C21.0487 21.9423 21.1796 21.7927 21.2692 21.5833L24.5 14V12.3847C24.5 12.1753 24.4327 12.0032 24.2982 11.8685C24.1634 11.7339 23.9913 11.6667 23.7819 11.6667H14.2243L15.575 5.2949L9.82683 10.9982V22.1667ZM8.66017 10.5V11.6667H4.66667V22.1667H8.66017V23.3333H3.5V10.5H8.66017Z" fill="black"/>
</g>
</svg>
