<svg width="28" height="29" viewBox="0 0 28 29" fill="none" xmlns="http://www.w3.org/2000/svg">
<mask id="mask0_351_421" style="mask-type:alpha" maskUnits="userSpaceOnUse" x="0" y="0" width="28" height="29">
<rect y="0.641602" width="28" height="28" fill="#D9D9D9"/>
</mask>
<g mask="url(#mask0_351_421)">
<path d="M20.3717 23.975H8.92937V11.1417L16.2435 3.91736L16.7598 4.43332C16.8659 4.53948 16.9553 4.67559 17.0278 4.84165C17.1003 5.00771 17.1366 5.16025 17.1366 5.29928V5.48332L15.9431 11.1417H23.7819C24.2696 11.1417 24.7056 11.3339 25.09 11.7183C25.4745 12.1027 25.6667 12.5387 25.6667 13.0264V14.4623C25.6667 14.5684 25.6558 14.6843 25.634 14.8099C25.6124 14.9356 25.5799 15.0514 25.5366 15.1576L22.3507 22.7097C22.1907 23.0687 21.9215 23.3693 21.5431 23.6116C21.1645 23.8538 20.7741 23.975 20.3717 23.975ZM7.76271 11.1417V23.975H3.5V11.1417H7.76271Z" fill="#10A1AF"/>
</g>
</svg>
