<svg width="20" height="21" viewBox="0 0 20 21" fill="none" xmlns="http://www.w3.org/2000/svg">
<mask id="mask0_331_142" style="mask-type:alpha" maskUnits="userSpaceOnUse" x="0" y="0" width="20" height="21">
<rect y="0.641602" width="20" height="20" fill="#D9D9D9"/>
</mask>
<g mask="url(#mask0_331_142)">
<path d="M10.0038 13.2696C10.8506 13.2696 11.5691 12.9732 12.1594 12.3804C12.7497 11.7876 13.0448 11.0678 13.0448 10.221C13.0448 9.37422 12.7484 8.65567 12.1556 8.0654C11.5628 7.47512 10.8431 7.17998 9.99625 7.17998C9.14945 7.17998 8.4309 7.47637 7.84063 8.06915C7.25035 8.66193 6.95521 9.38172 6.95521 10.2285C6.95521 11.0753 7.2516 11.7939 7.84438 12.3841C8.43715 12.9744 9.15695 13.2696 10.0038 13.2696ZM10 12.4748C9.375 12.4748 8.84375 12.256 8.40625 11.8185C7.96875 11.381 7.75 10.8498 7.75 10.2248C7.75 9.59977 7.96875 9.06852 8.40625 8.63102C8.84375 8.19352 9.375 7.97477 10 7.97477C10.625 7.97477 11.1563 8.19352 11.5938 8.63102C12.0313 9.06852 12.25 9.59977 12.25 10.2248C12.25 10.8498 12.0313 11.381 11.5938 11.8185C11.1563 12.256 10.625 12.4748 10 12.4748ZM10.0023 15.6414C8.19729 15.6414 6.55229 15.1503 5.06729 14.1679C3.58229 13.1855 2.47014 11.8712 1.73083 10.2248C2.47014 8.57838 3.58153 7.26401 5.065 6.28165C6.54847 5.29929 8.19271 4.80811 9.99771 4.80811C11.8027 4.80811 13.4477 5.29929 14.9327 6.28165C16.4177 7.26401 17.5299 8.57838 18.2692 10.2248C17.5299 11.8712 16.4185 13.1855 14.935 14.1679C13.4515 15.1503 11.8073 15.6414 10.0023 15.6414ZM10 14.8081C11.5694 14.8081 13.0104 14.3949 14.3229 13.5685C15.6354 12.7421 16.6389 11.6275 17.3333 10.2248C16.6389 8.82199 15.6354 7.70741 14.3229 6.88102C13.0104 6.05463 11.5694 5.64144 10 5.64144C8.43056 5.64144 6.98958 6.05463 5.67708 6.88102C4.36458 7.70741 3.36111 8.82199 2.66667 10.2248C3.36111 11.6275 4.36458 12.7421 5.67708 13.5685C6.98958 14.3949 8.43056 14.8081 10 14.8081Z" fill="#757575"/>
</g>
</svg>
