<svg width="28" height="28" viewBox="0 0 28 28" fill="none" xmlns="http://www.w3.org/2000/svg">
<mask id="mask0_331_61" style="mask-type:alpha" maskUnits="userSpaceOnUse" x="0" y="0" width="28" height="28">
<rect width="28" height="28" fill="#D9D9D9"/>
</mask>
<g mask="url(#mask0_331_61)">
<path d="M14.0053 17.6794C15.1908 17.6794 16.1968 17.2644 17.0232 16.4345C17.8496 15.6046 18.2628 14.5969 18.2628 13.4114C18.2628 12.2259 17.8478 11.2199 17.0179 10.3935C16.188 9.56713 15.1803 9.15394 13.9948 9.15394C12.8093 9.15394 11.8033 9.56888 10.9769 10.3988C10.1505 11.2287 9.73734 12.2364 9.73734 13.4219C9.73734 14.6074 10.1523 15.6134 10.9822 16.4398C11.8121 17.2662 12.8198 17.6794 14.0053 17.6794ZM14 16.5666C13.1251 16.5666 12.3813 16.2604 11.7688 15.6479C11.1563 15.0354 10.8501 14.2916 10.8501 13.4166C10.8501 12.5416 11.1563 11.7979 11.7688 11.1854C12.3813 10.5729 13.1251 10.2666 14 10.2666C14.875 10.2666 15.6188 10.5729 16.2313 11.1854C16.8438 11.7979 17.1501 12.5416 17.1501 13.4166C17.1501 14.2916 16.8438 15.0354 16.2313 15.6479C15.6188 16.2604 14.875 16.5666 14 16.5666ZM14.0033 21C11.4763 21 9.17326 20.3123 7.09426 18.937C5.01526 17.5617 3.45825 15.7216 2.42322 13.4166C3.45825 11.1117 5.01419 9.27158 7.09105 7.89627C9.16791 6.52097 11.4698 5.83331 13.9968 5.83331C16.5238 5.83331 18.8268 6.52097 20.9058 7.89627C22.9848 9.27158 24.5419 11.1117 25.5769 13.4166C24.5419 15.7216 22.9859 17.5617 20.9091 18.937C18.8322 20.3123 16.5303 21 14.0033 21ZM14 19.8333C16.1973 19.8333 18.2146 19.2548 20.0521 18.0979C21.8896 16.941 23.2945 15.3805 24.2667 13.4166C23.2945 11.4528 21.8896 9.89234 20.0521 8.7354C18.2146 7.57845 16.1973 6.99998 14 6.99998C11.8028 6.99998 9.78547 7.57845 7.94797 8.7354C6.11047 9.89234 4.70561 11.4528 3.73338 13.4166C4.70561 15.3805 6.11047 16.941 7.94797 18.0979C9.78547 19.2548 11.8028 19.8333 14 19.8333Z" fill="black"/>
</g>
</svg>
