<svg width="22" height="22" viewBox="0 0 22 22" fill="none" xmlns="http://www.w3.org/2000/svg">
<mask id="mask0_519_709" style="mask-type:alpha" maskUnits="userSpaceOnUse" x="0" y="0" width="23" height="23">
<rect x="0.000366211" y="0.000488281" width="22" height="22" fill="#D9D9D9"/>
</mask>
<g mask="url(#mask0_519_709)">
<path d="M11.0045 13.8913C11.936 13.8913 12.7264 13.5653 13.3757 12.9133C14.025 12.2612 14.3497 11.4694 14.3497 10.5379C14.3497 9.60646 14.0236 8.81607 13.3716 8.16676C12.7195 7.51745 11.9277 7.1928 10.9963 7.1928C10.0648 7.1928 9.27437 7.51883 8.62507 8.17089C7.97576 8.82294 7.65111 9.61471 7.65111 10.5462C7.65111 11.4777 7.97714 12.2681 8.62919 12.9174C9.28125 13.5667 10.073 13.8913 11.0045 13.8913ZM11.0004 13.0171C10.3129 13.0171 9.72851 12.7764 9.24726 12.2952C8.76601 11.8139 8.52538 11.2296 8.52538 10.5421C8.52538 9.85457 8.76601 9.2702 9.24726 8.78895C9.72851 8.3077 10.3129 8.06707 11.0004 8.06707C11.6879 8.06707 12.2723 8.3077 12.7535 8.78895C13.2348 9.2702 13.4754 9.85457 13.4754 10.5421C13.4754 11.2296 13.2348 11.8139 12.7535 12.2952C12.2723 12.7764 11.6879 13.0171 11.0004 13.0171ZM11.0029 16.5004C9.0174 16.5004 7.2079 15.9601 5.5744 14.8795C3.9409 13.7989 2.71753 12.3531 1.9043 10.5421C2.71753 8.73105 3.94006 7.28523 5.57188 6.20464C7.2037 5.12404 9.01236 4.58374 10.9979 4.58374C12.9834 4.58374 14.7929 5.12404 16.4264 6.20464C18.0599 7.28523 19.2832 8.73105 20.0965 10.5421C19.2832 12.3531 18.0607 13.7989 16.4289 14.8795C14.7971 15.9601 12.9884 16.5004 11.0029 16.5004Z" fill="#454545"/>
</g>
</svg>
