<svg width="16" height="17" viewBox="0 0 16 17" fill="none" xmlns="http://www.w3.org/2000/svg">
<path d="M15.84 8.67784C15.84 8.13341 15.7956 7.58898 15.7067 7.05566H8.16248V10.1333H12.4846C12.3068 11.1222 11.729 12.0111 10.8846 12.5666V14.5665H13.4623C14.9734 13.1777 15.84 11.1222 15.84 8.67784Z" fill="#4285F4"/>
<path d="M8.16241 16.5002C10.3179 16.5002 12.1401 15.7891 13.4622 14.5669L10.8846 12.5669C10.1624 13.0558 9.24016 13.3336 8.16241 13.3336C6.07359 13.3336 4.30698 11.9225 3.67366 10.0337H1.01819V12.1003C2.3737 14.7891 5.14028 16.5002 8.16241 16.5002Z" fill="#34A853"/>
<path d="M3.67368 10.0337C3.34036 9.04483 3.34036 7.96708 3.67368 6.96711V4.91162H1.01821C0.453968 6.02377 0.159912 7.2533 0.159912 8.5004C0.159912 9.7475 0.453968 10.977 1.01821 12.0892L3.67368 10.0337Z" fill="#FBBC04"/>
<path d="M8.16241 3.66705C9.30682 3.64483 10.4068 4.07815 11.229 4.86702L13.5067 2.58931C12.0623 1.22268 10.1512 0.478262 8.16241 0.500484C5.14028 0.500484 2.3737 2.21154 1.01819 4.91146L3.67366 6.97806C4.30698 5.07812 6.07359 3.66705 8.16241 3.66705Z" fill="#EA4335"/>
</svg>
