<svg xmlns="http://www.w3.org/2000/svg" width="25" height="25"><g fill="none" fill-rule="evenodd"><circle cx="11.694" cy="11.694" r="11.694" fill="#E1E6F0" fill-rule="nonzero"/><g stroke-linecap="round" stroke-linejoin="round"><g stroke="#1C1E2F" stroke-width=".843"><path d="M1.5 12.537v5.365l2.726.434"/><path fill="#E03F19" d="M3.935 10.602c1.212-.549 2.673-.913 4.217-1.102l2.435 4.113L1.5 12.51c.416-.7 1.223-1.36 2.435-1.91z"/><path fill="#FFF" d="M23.5 16.098v4.377c0 2.223-4.068 4.025-9.087 4.025s-9.087-1.802-9.087-4.025v-4.377"/><path fill="#F3A891" d="M22.308 13.997c1.972 1.528 1.48 3.505-1.478 4.808-3.548 1.563-9.3 1.563-12.848 0-2.4-1.058-3.17-2.559-2.324-3.903l8.764 1.034-2.328-3.828a19.89 19.89 0 0 1 1.231-.103"/></g><path fill="#FFF" stroke="#1C1E2F" stroke-width=".8" d="M22.457 6a5.5 5.5 0 1 1-11 0 5.5 5.5 0 0 1 11 0z"/><path stroke="#E03F19" stroke-width=".8" d="M15.4 7.222c0 .51.479 1.025 1.055 1.025h1.032c.576 0 1.043-.516 1.043-1.025v-.155c0-.397-.281-.749-.707-.874l-1.707-.502c-.426-.126-.716-.478-.716-.875v-.155c0-.51.467-1.024 1.043-1.024h1.044c.576 0 1.043.515 1.043 1.024v.512m-1.547-1.536V2.1m0 6.147v1.536"/><path stroke="#1C1E2F" stroke-width=".8" d="m21.37 9.694 3.13 3.074"/></g><path stroke="#7A8798" stroke-width=".75" d="M5.999 4a2 2 0 0 1-2-2A2 2 0 0 1 2 4a2 2 0 0 1 1.999 2 2 2 0 0 1 2-2zm3.457 2.6a1.5 1.5 0 0 1-1.5-1.5 1.5 1.5 0 0 1-1.5 1.5 1.5 1.5 0 0 1 1.5 1.5 1.5 1.5 0 0 1 1.5-1.5z"/></g></svg>