<svg width="184" height="76" viewBox="0 0 184 76" fill="none" xmlns="http://www.w3.org/2000/svg">
<path d="M47.04 74.2901H40.17C40.17 56.1001 54.97 41.3 73.16 41.3V48.1701C58.75 48.1701 47.04 59.8901 47.04 74.2901Z" fill="#F5AF43"/>
<path d="M6.83002 74.2901H0.26001C0.26001 34.1001 32.96 1.39014 73.16 1.39014V7.96011C36.58 7.96011 6.83002 37.7101 6.83002 74.2901Z" fill="#53ACBC"/>
<path d="M32.08 74.2902H25.09C25.09 47.7902 46.65 26.2302 73.16 26.2302V33.2202C50.51 33.2202 32.08 51.6502 32.08 74.3002V74.2902Z" fill="#D3411D"/>
<path d="M90.1 57.6899L86.62 58.3999C87.26 60.7599 87.9 63.7299 88.53 67.2599L92.01 66.5099C91.37 63.3499 90.73 60.3799 90.1 57.6899Z" fill="#040000"/>
<path d="M99.06 22.6399H99.15V25.2099H106.26V1.43988H99.15V3.96988H99.06C98.2 2.50988 96.02 0.629883 92.12 0.629883C85.78 0.629883 80.18 5.50987 80.18 13.2999C80.18 20.1099 84.59 26.0199 92.12 26.0199C94.9 26.0199 97.86 24.9499 99.06 22.6399ZM87.28 13.3899C87.28 10.6899 89.08 7.26987 93.15 7.26987C97.22 7.26987 99.14 10.4399 99.14 13.3099C99.14 15.6199 97.64 19.3899 93.19 19.3899C88.74 19.3899 87.28 15.6199 87.28 13.3899Z" fill="#040000"/>
<path d="M128.56 2.67987C127.28 1.56987 124.75 0.629883 122.48 0.629883C118.24 0.629883 116.74 2.80988 116.01 3.96988H115.93V1.43988H109.29V25.2099H116.4V12.2799C116.4 10.8199 116.4 7.30988 120.47 7.30988C124.19 7.30988 124.19 10.5699 124.19 12.2399V25.2099H131.3V10.3499C131.3 5.67988 129.84 3.79988 128.56 2.68988V2.67987Z" fill="#040000"/>
<path d="M143.25 25.9699C145.05 25.9699 147.96 25.7199 149.42 22.6799H149.51V25.2099H156.23V1.43994H149.12V14.4999C149.12 18.2699 147.11 19.3399 145.05 19.3399C141.24 19.3399 141.24 16.2199 141.24 14.5899V1.43994H134.13V15.6599C134.13 18.9099 134.38 20.63 136.27 22.9799C138.37 25.63 141.79 25.9699 143.25 25.9699Z" fill="#040000"/>
<path d="M171.19 0.629883C163.95 0.629883 158.73 6.74989 158.73 13.3899C158.73 20.4499 164.51 25.9799 171.32 25.9799C173.76 25.9799 176.11 25.2599 178.08 23.8399C180.09 22.4699 181.77 20.4099 182.92 17.7599H175.64C174.66 19.0099 173.5 19.9899 171.32 19.9899C168.54 19.9899 166.18 18.3199 165.75 15.4999H183.56C183.64 14.9399 183.73 14.5499 183.73 13.6099C183.73 6.36986 178.42 0.629883 171.18 0.629883H171.19ZM165.84 10.6899C166.14 9.27988 167.55 6.61987 171.23 6.61987C174.91 6.61987 176.33 9.26988 176.63 10.6899H165.84Z" fill="#040000"/>
<path d="M102.42 46.28L105.26 43.69C102.86 40.63 100.31 37.65 97.61 34.83L98 33.56L94.52 32.48C92.12 37.01 89.12 40.73 85.54 43.7L87.26 47.19C88.14 46.58 88.93 45.92 89.57 45.16V47.56H93.2V51.8H86.68V55.1H93.2V69.29L85.75 70.37L86.49 73.91L103.75 71.32L104.14 67.83L96.83 68.91V55.09H103.55V51.79H96.83V47.55H100.51V44.25H90.9C92.96 42.03 94.48 39.86 95.51 37.79C98.06 40.62 100.37 43.45 102.43 46.28H102.42Z" fill="#040000"/>
<path d="M97.95 65.9899L101.38 66.89C102.16 64.3 103 61.4699 103.88 58.3999L100.45 57.6899C99.81 60.3799 98.98 63.1599 97.95 65.9899Z" fill="#040000"/>
<path d="M136.25 60.09H165.97L154.64 63.58V70.32C154.64 71.5 153.86 72.02 152.73 72.02C150.82 72.02 147.58 71.78 144.78 71.55L145.81 75.18C147.97 75.32 150.22 75.37 152.77 75.37C156.74 75.37 158.85 73.58 158.85 70.37V65.61L175.33 59.91V56.75H136.24V60.1L136.25 60.09Z" fill="#040000"/>
<path d="M109.82 61.5498H126.06C126.61 61.5398 127.06 61.0998 127.08 60.5598V47.2998C127.08 46.7498 126.64 46.3098 126.1 46.2798H109.82V38.1698H129.19V34.8198H107.02C106.45 34.8198 105.99 35.2798 105.99 35.8498V72.6798C105.99 73.2498 106.45 73.7098 107.02 73.7098H129.72V70.3598H109.81V61.5398L109.82 61.5498ZM109.82 49.5798H123.21V58.2098H109.82V49.5798Z" fill="#040000"/>
<path d="M172 54.1999C172.57 54.1999 173.03 53.7399 173.03 53.1699V44.9099C173.03 44.3399 172.57 43.8799 172 43.8799H141.5C140.93 43.8799 140.47 44.3399 140.47 44.9099V53.1699C140.47 53.7399 140.93 54.1999 141.5 54.1999H172ZM144.68 46.9899H168.81V51.0399H144.68V46.9899Z" fill="#040000"/>
<path d="M158.69 32.46H154.81V37.98H134.92V41.28H178.77V37.98H158.69V32.46Z" fill="#040000"/>
</svg>
