<svg width="140" height="140" viewBox="0 0 140 140" fill="none" xmlns="http://www.w3.org/2000/svg">
<path d="M98.1054 122.873C93.0981 121.64 86.7555 120.52 80.6355 119.399C74.1816 118.167 65.2797 116.598 60.3837 115.141C63.1655 114.245 68.1728 113.124 77.186 111.667C78.9664 111.443 80.1904 109.762 79.8566 107.969C79.634 106.177 77.8536 104.944 76.1845 105.28C54.9313 108.642 51.148 111.107 51.0367 115.141C50.9254 120.296 57.9357 121.977 79.4115 125.898C82.1933 126.459 84.9752 126.907 87.757 127.467C75.7394 129.933 53.4847 132.51 33.3442 131.613C31.3413 131.725 30.006 132.958 30.006 134.751C29.8947 136.544 31.3413 138.113 33.1217 138.113C35.1246 138.225 37.2388 138.225 39.6868 138.225C61.9415 138.225 100.999 134.527 102 127.467C102 126.571 102 123.769 98.1054 122.873Z" fill="#0032E1" fill-opacity="0.3"/>
<path d="M104.359 74.6468C104.183 73.2046 103.032 72.0247 101.596 72.0247C100.159 72.0247 99.0146 73.2046 98.8392 74.6468C97.6625 84.139 90.2058 91.6587 80.7918 92.8451C79.3616 93.0221 78.1914 94.1759 78.1914 95.6246C78.1914 97.0732 79.3616 98.2337 80.7918 98.4107C90.2053 99.5907 97.6626 107.116 98.8392 116.609C99.0147 118.045 100.159 119.225 101.596 119.225C103.032 119.225 104.183 118.045 104.359 116.609C105.529 107.117 112.992 99.5905 122.406 98.4107C123.83 98.2337 125 97.0734 125 95.6246C125 94.1758 123.83 93.022 122.406 92.8451C112.993 91.6586 105.529 84.1395 104.359 74.6468Z" fill="url(#paint0_linear_376_524)"/>
<path d="M63.0279 4.67168C62.874 2.77685 61.3603 1.22473 59.4681 1.22473C57.5759 1.22473 56.0623 2.77685 55.9083 4.67168C54.2599 24.7839 38.3588 40.8167 18.4186 42.4723C16.533 42.6275 15 44.1601 15 46.0616C15 47.9693 16.5329 49.4956 18.4186 49.6574C38.3604 51.313 54.2597 67.3458 55.9083 87.4513C56.0622 89.3526 57.5759 90.9047 59.4681 90.9047C61.3603 90.9047 62.8739 89.3526 63.0279 87.4513C64.6763 67.3441 80.5774 51.313 100.518 49.6574C102.403 49.4957 103.936 47.9695 103.936 46.0616C103.936 44.1603 102.403 42.6276 100.518 42.4723C80.5757 40.8167 64.6764 24.7839 63.0279 4.67168Z" fill="url(#paint1_linear_376_524)"/>
<defs>
<linearGradient id="paint0_linear_376_524" x1="112.147" y1="119.225" x2="91.0439" y2="72.0247" gradientUnits="userSpaceOnUse">
<stop offset="0.173077" stop-color="#0032E1"/>
<stop offset="0.5" stop-color="#E1E8FF"/>
<stop offset="0.850962" stop-color="#0032E1"/>
</linearGradient>
<linearGradient id="paint1_linear_376_524" x1="79.5165" y1="90.9047" x2="39.4197" y2="1.22474" gradientUnits="userSpaceOnUse">
<stop offset="0.173077" stop-color="#0032E1"/>
<stop offset="0.5" stop-color="#E1E8FF"/>
<stop offset="0.850962" stop-color="#0032E1"/>
</linearGradient>
</defs>
</svg>
