<svg width="56" height="56" viewBox="0 0 56 56" fill="none" xmlns="http://www.w3.org/2000/svg">
<path d="M0 28C0 16.7643 0 11.1465 2.69649 7.11088C3.86382 5.36383 5.36383 3.86382 7.11088 2.69649C11.1465 0 16.7643 0 28 0V0C39.2357 0 44.8535 0 48.8891 2.69649C50.6362 3.86382 52.1362 5.36383 53.3035 7.11088C56 11.1465 56 16.7643 56 28V28C56 39.2357 56 44.8535 53.3035 48.8891C52.1362 50.6362 50.6362 52.1362 48.8891 53.3035C44.8535 56 39.2357 56 28 56V56C16.7643 56 11.1465 56 7.11088 53.3035C5.36383 52.1362 3.86382 50.6362 2.69649 48.8891C0 44.8535 0 39.2357 0 28V28Z" fill="#0032E1" fill-opacity="0.5"/>
<path d="M36.03 43.1066C34.5993 42.7544 32.7872 42.4342 31.0386 42.1141C29.1946 41.7619 26.6512 41.3137 25.2523 40.8974C26.0472 40.6413 27.4778 40.3212 30.053 39.9049C30.5617 39.8409 30.9114 39.3607 30.816 38.8484C30.7524 38.3361 30.2438 37.984 29.7669 38.08C23.6945 39.0405 22.6136 39.7449 22.5818 40.8974C22.55 42.3702 24.5529 42.8504 30.6889 43.971C31.4837 44.1311 32.2785 44.2591 33.0733 44.4192C29.6397 45.1236 23.2812 45.86 17.5268 45.6038C16.9545 45.6358 16.573 45.988 16.573 46.5003C16.5412 47.0125 16.9545 47.4608 17.4632 47.4608C18.0355 47.4928 18.6395 47.4928 19.339 47.4928C25.6974 47.4928 36.8566 46.4362 37.1427 44.4192C37.1427 44.1631 37.1427 43.3627 36.03 43.1066Z" fill="url(#paint0_linear_30_995)"/>
<path d="M37.8172 29.3276C37.767 28.9155 37.4382 28.5784 37.0277 28.5784C36.6172 28.5784 36.2903 28.9155 36.2402 29.3276C35.904 32.0396 33.7735 34.1881 31.0838 34.5271C30.6752 34.5777 30.3408 34.9073 30.3408 35.3212C30.3408 35.7351 30.6752 36.0667 31.0838 36.1172C33.7734 36.4544 35.904 38.6046 36.2402 41.3168C36.2903 41.7269 36.6173 42.0641 37.0277 42.0641C37.4382 42.0641 37.767 41.7269 37.8172 41.3168C38.1515 38.6047 40.2839 36.4543 42.9736 36.1172C43.3803 36.0667 43.7147 35.7352 43.7147 35.3212C43.7147 34.9073 43.3803 34.5776 42.9736 34.5271C40.284 34.1881 38.1514 32.0398 37.8172 29.3276Z" fill="url(#paint1_linear_30_995)"/>
<path d="M26.0084 9.3347C25.9644 8.79332 25.5319 8.34985 24.9913 8.34985C24.4507 8.34985 24.0182 8.79332 23.9742 9.3347C23.5032 15.081 18.9601 19.6618 13.2629 20.1349C12.7241 20.1792 12.2861 20.6171 12.2861 21.1604C12.2861 21.7055 12.7241 22.1415 13.2629 22.1878C18.9605 22.6608 23.5032 27.2416 23.9742 32.986C24.0182 33.5292 24.4507 33.9727 24.9913 33.9727C25.5319 33.9727 25.9644 33.5292 26.0084 32.986C26.4794 27.2411 31.0225 22.6608 36.7197 22.1878C37.2585 22.1416 37.6965 21.7055 37.6965 21.1604C37.6965 20.6172 37.2585 20.1792 36.7197 20.1349C31.0221 19.6618 26.4794 15.081 26.0084 9.3347Z" fill="url(#paint2_linear_30_995)"/>
<defs>
<linearGradient id="paint0_linear_30_995" x1="22.5927" y1="38.0642" x2="24.6653" y2="48.7455" gradientUnits="userSpaceOnUse">
<stop stop-color="white" stop-opacity="0.5"/>
<stop offset="0.25" stop-color="white" stop-opacity="0.8"/>
<stop offset="0.5" stop-color="white"/>
<stop offset="0.75" stop-color="white" stop-opacity="0.8"/>
<stop offset="1" stop-color="white" stop-opacity="0.5"/>
</linearGradient>
<linearGradient id="paint1_linear_30_995" x1="34.2554" y1="28.5784" x2="39.9798" y2="41.9874" gradientUnits="userSpaceOnUse">
<stop stop-color="white" stop-opacity="0.5"/>
<stop offset="0.25" stop-color="white" stop-opacity="0.8"/>
<stop offset="0.5" stop-color="white"/>
<stop offset="0.75" stop-color="white" stop-opacity="0.8"/>
<stop offset="1" stop-color="white" stop-opacity="0.5"/>
</linearGradient>
<linearGradient id="paint2_linear_30_995" x1="19.7239" y1="8.34985" x2="30.6001" y2="33.827" gradientUnits="userSpaceOnUse">
<stop stop-color="white" stop-opacity="0.5"/>
<stop offset="0.25" stop-color="white" stop-opacity="0.8"/>
<stop offset="0.5" stop-color="white"/>
<stop offset="0.75" stop-color="white" stop-opacity="0.8"/>
<stop offset="1" stop-color="white" stop-opacity="0.5"/>
</linearGradient>
</defs>
</svg>
